<svg id="Layer_1" data-name="Layer 1" xmlns="http://www.w3.org/2000/svg" viewBox="0 0 400 360.75"><defs><style>.cls-1{fill:#ff7358;}</style></defs><path class="cls-1" d="M320.7,96.58,303,174.74,280.45,80.32l-79.3-32-21.36,94.43L160.9,32,81.6,0,0,360.75H86.54l25-110.69,18.89,110.69H217l21.35-94.43h0L261,360.75h86.54L400,128.6ZM80.15,352.75H10L87.33,10.94l64.26,26ZM116.2,229.61,156.27,52.48l18.9,110.68L135.1,340.3Zm94.42,123.14H140.49L206.88,59.23l64.26,26ZM265,343.07l-22.58-94.43L276.45,98,299,192.42Zm76.15,9.68H271l55.47-245.23,64.27,26Z"/></svg>