<?xml version="1.0" encoding="UTF-8"?><svg id="Layer_1" xmlns="http://www.w3.org/2000/svg" viewBox="0 0 566.93 566.93"><defs><style>.cls-1{fill:#fff;}</style></defs><polygon class="cls-1" points="416.39 106.44 396.93 192.48 372.06 88.52 284.78 53.14 261.14 157.26 240.29 35.22 153.01 0 63.1 397.47 158.41 397.47 186.07 275.44 206.77 397.47 302.23 397.47 325.71 293.36 350.59 397.47 445.9 397.47 503.83 141.66 416.39 106.44"/><g><rect class="cls-1" x="128.48" y="482.78" width="9.45" height="84.15" rx="4.72" ry="4.72"/><rect class="cls-1" x="306.72" y="482.78" width="9.45" height="84.15" rx="4.72" ry="4.72"/><path class="cls-1" d="M40.02,530.17l-30.07-45.19c-.91-1.37-2.45-2.2-4.1-2.2h-1.13C2.13,482.78,0,484.91,0,487.51v74.7c0,2.6,2.13,4.72,4.72,4.72,2.6,0,4.72-2.13,4.72-4.72v-62.54s26.75,39.26,26.75,39.26c1.2,1.76,2.49,2.33,3.82,2.33h0c1.33,0,2.62-.57,3.82-2.33l26.75-39.26v62.54c0,2.6,2.13,4.72,4.72,4.72s4.72-2.13,4.72-4.72v-74.7c0-2.6-2.13-4.72-4.72-4.72h-1.13c-1.65,0-3.19,.82-4.1,2.2l-30.07,45.19h0Z"/><path class="cls-1" d="M404.62,530.17l-30.07-45.19c-.91-1.37-2.45-2.2-4.1-2.2h-1.13c-2.6,0-4.72,2.13-4.72,4.73v74.7c0,2.6,2.13,4.72,4.72,4.72,2.6,0,4.72-2.13,4.72-4.72v-62.54s26.75,39.26,26.75,39.26c1.2,1.76,2.49,2.33,3.82,2.33h0c1.33,0,2.62-.57,3.82-2.33l26.75-39.26v62.54c0,2.6,2.13,4.72,4.72,4.72s4.72-2.13,4.72-4.72v-74.7c0-2.6-2.13-4.72-4.72-4.72h-1.13c-1.65,0-3.19,.82-4.1,2.2l-30.07,45.19h0Z"/><path class="cls-1" d="M248.84,551.52l-52.43-66.85c-.93-1.19-2.36-1.88-3.87-1.88h-1.46c-2.6,0-4.72,2.13-4.72,4.73v74.7c0,2.6,2.13,4.72,4.72,4.72h0c2.6,0,4.72-2.13,4.72-4.72v-64.01l51.7,65.95,.73,.9c.93,1.19,2.36,1.88,3.87,1.88h1.46c2.6,0,4.72-2.13,4.72-4.73v-74.7c0-2.6-2.13-4.72-4.72-4.72h0c-2.6,0-4.72,2.13-4.72,4.72v64.01Z"/><path class="cls-1" d="M566.53,560.61s-33.1-72.3-33.98-74.22c-.88-1.91-2.82-3.61-5.99-3.61s-5.11,1.7-5.99,3.61c-.88,1.91-33.98,74.22-33.98,74.22-1.02,2.22-.03,4.87,2.19,5.89,2.22,1.02,4.87,.03,5.89-2.19l8.84-19.69h46.11l8.84,19.69c1.02,2.22,3.67,3.21,5.89,2.19,2.22-1.02,3.21-3.67,2.19-5.89Zm-39.97-24.69h-19.15l19.15-42.65,19.15,42.65h-19.15Z"/></g></svg>