<?xml version="1.0" encoding="UTF-8"?><svg id="Layer_1" xmlns="http://www.w3.org/2000/svg" viewBox="0 0 566.93 378.18"><defs><style>.cls-1{fill:#fff;}</style></defs><polygon class="cls-1" points="356.62 58.58 345.91 105.93 332.22 48.71 284.19 29.25 271.18 86.54 259.7 19.38 211.67 0 162.19 218.74 214.64 218.74 229.86 151.58 241.25 218.74 293.79 218.74 306.72 161.44 320.4 218.74 372.86 218.74 404.74 77.96 356.62 58.58"/><g><rect class="cls-1" x="128.48" y="294.03" width="9.45" height="84.15" rx="4.72" ry="4.72"/><rect class="cls-1" x="306.72" y="294.03" width="9.45" height="84.15" rx="4.72" ry="4.72"/><path class="cls-1" d="M40.02,341.42l-30.07-45.19c-.91-1.37-2.45-2.2-4.1-2.2h-1.13C2.13,294.03,0,296.16,0,298.76v74.7c0,2.6,2.13,4.72,4.72,4.72,2.6,0,4.72-2.13,4.72-4.72v-62.54s26.75,39.26,26.75,39.26c1.2,1.76,2.49,2.33,3.82,2.33h0c1.33,0,2.62-.57,3.82-2.33l26.75-39.26v62.54c0,2.6,2.13,4.72,4.72,4.72s4.72-2.13,4.72-4.72v-74.7c0-2.6-2.13-4.72-4.72-4.72h-1.13c-1.65,0-3.19,.82-4.1,2.2l-30.07,45.19h0Z"/><path class="cls-1" d="M404.62,341.42l-30.07-45.19c-.91-1.37-2.45-2.2-4.1-2.2h-1.13c-2.6,0-4.72,2.13-4.72,4.73v74.7c0,2.6,2.13,4.72,4.72,4.72,2.6,0,4.72-2.13,4.72-4.72v-62.54s26.75,39.26,26.75,39.26c1.2,1.76,2.49,2.33,3.82,2.33h0c1.33,0,2.62-.57,3.82-2.33l26.75-39.26v62.54c0,2.6,2.13,4.72,4.72,4.72s4.72-2.13,4.72-4.72v-74.7c0-2.6-2.13-4.72-4.72-4.72h-1.13c-1.65,0-3.19,.82-4.1,2.2l-30.07,45.19h0Z"/><path class="cls-1" d="M248.84,362.77l-52.43-66.85c-.93-1.19-2.36-1.88-3.87-1.88h-1.46c-2.6,0-4.72,2.13-4.72,4.73v74.7c0,2.6,2.13,4.72,4.72,4.72h0c2.6,0,4.72-2.13,4.72-4.72v-64.01l51.7,65.95,.73,.9c.93,1.19,2.36,1.88,3.87,1.88h1.46c2.6,0,4.72-2.13,4.72-4.73v-74.7c0-2.6-2.13-4.72-4.72-4.72h0c-2.6,0-4.72,2.13-4.72,4.72v64.01Z"/><path class="cls-1" d="M566.53,371.86s-33.1-72.3-33.98-74.22c-.88-1.91-2.82-3.61-5.99-3.61s-5.11,1.7-5.99,3.61c-.88,1.91-33.98,74.22-33.98,74.22-1.02,2.22-.03,4.87,2.19,5.89,2.22,1.02,4.87,.03,5.89-2.19l8.84-19.69h46.11l8.84,19.69c1.02,2.22,3.67,3.21,5.89,2.19,2.22-1.02,3.21-3.67,2.19-5.89Zm-39.97-24.69h-19.15l19.15-42.65,19.15,42.65h-19.15Z"/></g></svg>