<svg id="Layer_1" data-name="Layer 1" xmlns="http://www.w3.org/2000/svg" viewBox="0 0 800 533.62"><defs><style>.cls-1{fill:#fff;}.cls-2{fill:#a7a7b0;}.cls-3{fill:#91919d;}.cls-4{fill:#bdbdc4;}</style></defs><path class="cls-1" d="M0,420.73a6.7,6.7,0,0,1,6.58-6.58H8.1a7.31,7.31,0,0,1,6.24,3.54l42.19,63.45,42.18-63.45a7.17,7.17,0,0,1,6.25-3.54h1.51a6.7,6.7,0,0,1,6.58,6.58V526.87a6.73,6.73,0,0,1-6.58,6.75,6.89,6.89,0,0,1-6.75-6.75V438.79L61.93,494.3c-1.52,2.19-3.21,3.38-5.57,3.38s-4.22-1.19-5.74-3.38L13,439V527a6.5,6.5,0,1,1-13,0Z"/><path class="cls-1" d="M181.4,420.56a6.67,6.67,0,1,1,13.33,0V526.87a6.67,6.67,0,1,1-13.33,0Z"/><path class="cls-1" d="M263.07,420.73a6.7,6.7,0,0,1,6.58-6.58h1.85c3,0,4.9,1.52,6.75,3.88L350,509.49v-89.1a6.5,6.5,0,1,1,13,0V527a6,6,0,0,1-6.07,6.24h-.68c-2.87,0-4.89-1.69-6.92-4l-73.23-93.65V527a6.5,6.5,0,1,1-13,0Z"/><path class="cls-1" d="M431.3,420.56a6.67,6.67,0,1,1,13.33,0V526.87a6.67,6.67,0,1,1-13.33,0Z"/><path class="cls-1" d="M513,420.73a6.7,6.7,0,0,1,6.58-6.58h1.52a7.31,7.31,0,0,1,6.24,3.54l42.19,63.45,42.18-63.45a7.17,7.17,0,0,1,6.25-3.54h1.52a6.7,6.7,0,0,1,6.58,6.58V526.87a6.74,6.74,0,0,1-6.58,6.75,6.88,6.88,0,0,1-6.75-6.75V438.79L574.9,494.3c-1.52,2.19-3.21,3.38-5.57,3.38s-4.22-1.19-5.74-3.38L526,439V527a6.5,6.5,0,1,1-13,0Z"/><path class="cls-1" d="M685.93,524l47.92-104.79c1.69-3.71,4.22-5.9,8.44-5.9H743c4,0,6.75,2.19,8.26,5.9l47.93,104.62a9.1,9.1,0,0,1,.84,3.37,6.41,6.41,0,0,1-6.41,6.42c-3.21,0-5.4-2.2-6.58-4.9l-12.32-27.16h-64.8l-12.31,27.5a6.7,6.7,0,0,1-6.42,4.56,6,6,0,0,1-6.07-6.08A7.73,7.73,0,0,1,685.93,524Zm83.53-34.59L742.29,429l-27.17,60.41Z"/><polygon class="cls-1" points="468.82 68.71 432.83 227.84 452.14 308.62 488.14 149.5 468.82 68.71"/><polygon class="cls-1" points="366.55 27.4 324.35 213.93 340.52 308.62 382.71 122.09 366.55 27.4"/><polygon class="cls-2" points="298.71 0 228.9 308.62 302.93 308.62 324.35 213.93 366.55 27.4 298.71 0"/><polygon class="cls-3" points="400.99 41.31 382.71 122.09 340.52 308.62 414.56 308.62 432.83 227.84 468.82 68.71 400.99 41.31"/><polygon class="cls-4" points="503.26 82.62 488.14 149.5 452.14 308.62 526.18 308.62 571.1 110.02 503.26 82.62"/></svg>