<svg id="Layer_1" data-name="Layer 1" xmlns="http://www.w3.org/2000/svg" viewBox="0 0 600 400.21"><defs><style>.cls-1{fill:#fff;}.cls-2{fill:#a7a7b0;}.cls-3{fill:#91919d;}.cls-4{fill:#bdbdc4;}</style></defs><path class="cls-1" d="M0,315.55a5,5,0,0,1,4.94-4.94H6.07a5.49,5.49,0,0,1,4.69,2.66L42.4,360.85,74,313.27a5.37,5.37,0,0,1,4.69-2.66h1.14a5,5,0,0,1,4.93,4.94v79.6a5.05,5.05,0,0,1-4.93,5.06,5.16,5.16,0,0,1-5.07-5.06V329.09L46.45,370.73c-1.14,1.64-2.41,2.53-4.18,2.53a5.1,5.1,0,0,1-4.3-2.53L9.74,329.22v66.06a4.86,4.86,0,0,1-4.93,4.93A4.83,4.83,0,0,1,0,395.28Z"/><path class="cls-1" d="M136.05,315.42a5,5,0,1,1,10,0v79.73a5,5,0,1,1-10,0Z"/><path class="cls-1" d="M197.3,315.55a5,5,0,0,1,4.94-4.94h1.39c2.28,0,3.67,1.14,5.06,2.91l53.79,68.6V315.29a4.87,4.87,0,1,1,9.74,0v80a4.49,4.49,0,0,1-4.56,4.68h-.5c-2.15,0-3.67-1.27-5.19-3L207,326.68v68.6a4.87,4.87,0,1,1-9.74,0Z"/><path class="cls-1" d="M323.48,315.42a5,5,0,1,1,10,0v79.73a5,5,0,1,1-10,0Z"/><path class="cls-1" d="M384.73,315.55a5,5,0,0,1,4.93-4.94h1.14a5.5,5.5,0,0,1,4.69,2.66l31.63,47.58,31.64-47.58a5.37,5.37,0,0,1,4.69-2.66h1.13a5,5,0,0,1,4.94,4.94v79.6a5.06,5.06,0,0,1-4.94,5.06,5.16,5.16,0,0,1-5.06-5.06V329.09l-28.35,41.64c-1.14,1.64-2.4,2.53-4.17,2.53a5.12,5.12,0,0,1-4.31-2.53l-28.22-41.51v66.06a4.87,4.87,0,1,1-9.74,0Z"/><path class="cls-1" d="M514.45,393l35.94-78.59c1.27-2.79,3.16-4.43,6.33-4.43h.5c3,0,5.07,1.64,6.21,4.43l35.94,78.46a6.75,6.75,0,0,1,.63,2.53,4.81,4.81,0,0,1-4.81,4.81c-2.4,0-4.05-1.64-4.93-3.67L581,376.17h-48.6l-9.24,20.63a5,5,0,0,1-4.81,3.41,4.53,4.53,0,0,1-4.55-4.55A5.71,5.71,0,0,1,514.45,393Zm62.64-25.94-20.37-45.31-20.38,45.31Z"/><polygon class="cls-1" points="351.62 51.53 324.62 170.88 339.11 231.47 366.1 112.12 351.62 51.53"/><polygon class="cls-1" points="274.91 20.55 243.26 160.45 255.39 231.47 287.03 91.57 274.91 20.55"/><polygon class="cls-2" points="224.03 0 171.67 231.47 227.2 231.47 243.26 160.45 274.91 20.55 224.03 0"/><polygon class="cls-3" points="300.74 30.98 287.03 91.57 255.39 231.47 310.92 231.47 324.62 170.88 351.62 51.53 300.74 30.98"/><polygon class="cls-4" points="377.45 61.97 366.1 112.12 339.11 231.47 394.63 231.47 428.33 82.52 377.45 61.97"/></svg>