<svg id="Layer_1" data-name="Layer 1" xmlns="http://www.w3.org/2000/svg" viewBox="0 0 900 600.32"><defs><style>.cls-1{fill:#fff;}.cls-2{fill:#a7a7b0;}.cls-3{fill:#91919d;}.cls-4{fill:#bdbdc4;}</style></defs><path class="cls-1" d="M0,473.32a7.54,7.54,0,0,1,7.4-7.4H9.11a8.24,8.24,0,0,1,7,4l47.45,71.38,47.46-71.38a8.07,8.07,0,0,1,7-4h1.71a7.54,7.54,0,0,1,7.41,7.4v119.4a7.59,7.59,0,0,1-7.41,7.6,7.75,7.75,0,0,1-7.59-7.6V493.63L69.67,556.09c-1.71,2.47-3.61,3.79-6.27,3.79s-4.74-1.32-6.45-3.79L14.62,493.82v99.1a7.31,7.31,0,1,1-14.62,0Z"/><path class="cls-1" d="M204.07,473.13a7.5,7.5,0,1,1,15,0V592.72a7.5,7.5,0,1,1-15,0Z"/><path class="cls-1" d="M296,473.32a7.54,7.54,0,0,1,7.4-7.4h2.09c3.42,0,5.51,1.71,7.6,4.36l80.67,102.89V472.94a7.31,7.31,0,1,1,14.62,0v120a6.74,6.74,0,0,1-6.83,7h-.76c-3.23,0-5.51-1.9-7.79-4.56L310.57,490V592.92a7.31,7.31,0,1,1-14.62,0Z"/><path class="cls-1" d="M485.22,473.13a7.5,7.5,0,1,1,15,0V592.72a7.5,7.5,0,1,1-15,0Z"/><path class="cls-1" d="M577.09,473.32a7.54,7.54,0,0,1,7.41-7.4h1.7a8.24,8.24,0,0,1,7,4l47.46,71.38,47.45-71.38a8.07,8.07,0,0,1,7-4h1.71a7.54,7.54,0,0,1,7.4,7.4v119.4a7.58,7.58,0,0,1-7.4,7.6,7.75,7.75,0,0,1-7.6-7.6V493.63l-42.52,62.46c-1.71,2.47-3.61,3.79-6.26,3.79s-4.75-1.32-6.46-3.79l-42.33-62.27v99.1a7.31,7.31,0,1,1-14.62,0Z"/><path class="cls-1" d="M771.67,589.5l53.92-117.89c1.89-4.17,4.74-6.64,9.49-6.64h.76c4.55,0,7.59,2.47,9.3,6.64l53.91,117.7a10.15,10.15,0,0,1,1,3.8,7.21,7.21,0,0,1-7.21,7.21c-3.61,0-6.08-2.47-7.41-5.51l-13.85-30.56h-72.9l-13.86,30.94c-1.33,3.23-3.79,5.13-7.21,5.13a6.81,6.81,0,0,1-6.84-6.84A8.64,8.64,0,0,1,771.67,589.5Zm94-38.92-30.56-68-30.57,68Z"/><polygon class="cls-1" points="527.43 77.3 486.93 256.32 508.66 347.2 549.15 168.18 527.43 77.3"/><polygon class="cls-1" points="412.37 30.83 364.9 240.67 383.08 347.2 430.55 137.36 412.37 30.83"/><polygon class="cls-2" points="336.05 0 257.51 347.2 340.8 347.2 364.9 240.67 412.37 30.83 336.05 0"/><polygon class="cls-3" points="451.11 46.48 430.55 137.36 383.08 347.2 466.38 347.2 486.93 256.32 527.43 77.3 451.11 46.48"/><polygon class="cls-4" points="566.17 92.95 549.15 168.18 508.66 347.2 591.95 347.2 642.49 123.78 566.17 92.95"/></svg>