<?xml version="1.0" encoding="UTF-8"?><svg id="Layer_2" xmlns="http://www.w3.org/2000/svg" viewBox="0 0 200 200"><defs><style>.cls-1{fill:#16181c;}</style></defs><polygon class="cls-1" points="150 150 150 150 150 150 150 150"/><polygon class="cls-1" points="50 50 50 50 50 50 50 50"/><g><polygon class="cls-1" points="150 0 50 0 50 50 150 50 150 150 200 150 200 150 200 50 200 0 150 0"/><polygon class="cls-1" points="0 0 50 50 50 50 50 0 0 0 0 0"/><polygon class="cls-1" points="150 150 200 200 200 150 150 150 150 150"/></g><rect class="cls-1" y="100" width="100" height="100"/></svg>