<svg id="Layer_1" data-name="Layer 1" xmlns="http://www.w3.org/2000/svg" viewBox="0 0 500 333.51"><defs><style>.cls-1{fill:#16181c;}.cls-2{fill:#a7a7b0;}.cls-3{fill:#91919d;}.cls-4{fill:#bdbdc4;}</style></defs><path class="cls-1" d="M0,263a4.19,4.19,0,0,1,4.11-4.12h.95A4.54,4.54,0,0,1,9,261.06l26.37,39.65,26.36-39.65a4.5,4.5,0,0,1,3.91-2.22h1A4.19,4.19,0,0,1,70.66,263v66.33a4.21,4.21,0,0,1-4.11,4.22,4.3,4.3,0,0,1-4.22-4.22V274.24L38.7,308.94a4.07,4.07,0,0,1-3.48,2.11,4.25,4.25,0,0,1-3.58-2.11L8.12,274.35v55A4,4,0,0,1,4,333.51a4,4,0,0,1-4-4.11Z"/><path class="cls-1" d="M113.37,262.85a4.17,4.17,0,1,1,8.34,0v66.44a4.17,4.17,0,1,1-8.34,0Z"/><path class="cls-1" d="M164.42,263a4.19,4.19,0,0,1,4.11-4.12h1.16c1.9,0,3.06,1,4.22,2.43l44.82,57.16V262.75a4.06,4.06,0,1,1,8.12,0V329.4a3.74,3.74,0,0,1-3.8,3.9h-.42c-1.79,0-3.06-1.06-4.32-2.53l-45.77-58.53V329.4a4.06,4.06,0,1,1-8.12,0Z"/><path class="cls-1" d="M269.56,262.85a4.17,4.17,0,1,1,8.34,0v66.44a4.17,4.17,0,1,1-8.34,0Z"/><path class="cls-1" d="M320.61,263a4.19,4.19,0,0,1,4.11-4.12h.95a4.56,4.56,0,0,1,3.9,2.22l26.37,39.65,26.36-39.65a4.49,4.49,0,0,1,3.9-2.22h.95a4.19,4.19,0,0,1,4.12,4.12v66.33a4.21,4.21,0,0,1-4.12,4.22,4.3,4.3,0,0,1-4.22-4.22V274.24l-23.62,34.7a4.08,4.08,0,0,1-3.48,2.11,4.22,4.22,0,0,1-3.58-2.11l-23.52-34.59v55a4.06,4.06,0,1,1-8.12,0Z"/><path class="cls-1" d="M428.71,327.5l30-65.49c1-2.32,2.64-3.69,5.27-3.69h.42a5.32,5.32,0,0,1,5.17,3.69l30,65.38a5.59,5.59,0,0,1,.53,2.11,4,4,0,0,1-4,4,4.55,4.55,0,0,1-4.11-3.06l-7.7-17h-40.5L436,330.66a4.15,4.15,0,0,1-4,2.85,3.79,3.79,0,0,1-3.8-3.8A4.81,4.81,0,0,1,428.71,327.5Zm52.2-21.62-17-37.76-17,37.76Z"/><polygon class="cls-1" points="293.01 42.95 270.52 142.4 282.59 192.89 305.09 93.44 293.01 42.95"/><polygon class="cls-1" points="229.09 17.13 202.72 133.71 212.82 192.89 239.19 76.31 229.09 17.13"/><polygon class="cls-2" points="186.69 0 143.06 192.89 189.33 192.89 202.72 133.71 229.09 17.13 186.69 0"/><polygon class="cls-3" points="250.62 25.82 239.19 76.31 212.82 192.89 259.1 192.89 270.52 142.4 293.01 42.95 250.62 25.82"/><polygon class="cls-4" points="314.54 51.64 305.09 93.44 282.59 192.89 328.86 192.89 356.94 68.76 314.54 51.64"/></svg>