<svg id="Layer_1" data-name="Layer 1" xmlns="http://www.w3.org/2000/svg" viewBox="0 0 400 266.81"><defs><style>.cls-1{fill:#16181c;}.cls-2{fill:#a7a7b0;}.cls-3{fill:#91919d;}.cls-4{fill:#bdbdc4;}</style></defs><path class="cls-1" d="M0,210.37a3.35,3.35,0,0,1,3.29-3.3h.76a3.64,3.64,0,0,1,3.12,1.78l21.09,31.72,21.1-31.72a3.57,3.57,0,0,1,3.12-1.78h.76a3.35,3.35,0,0,1,3.29,3.3v53.06a3.37,3.37,0,0,1-3.29,3.38,3.44,3.44,0,0,1-3.38-3.38v-44L31,247.15a3.26,3.26,0,0,1-2.78,1.69,3.4,3.4,0,0,1-2.87-1.69L6.5,219.48v44a3.25,3.25,0,1,1-6.5,0Z"/><path class="cls-1" d="M90.7,210.28a3.33,3.33,0,1,1,6.66,0v53.15a3.33,3.33,0,1,1-6.66,0Z"/><path class="cls-1" d="M131.53,210.37a3.35,3.35,0,0,1,3.29-3.3h.93a4.08,4.08,0,0,1,3.38,2L175,254.74V210.2a3.25,3.25,0,1,1,6.5,0v53.32a3,3,0,0,1-3,3.12h-.33c-1.44,0-2.45-.84-3.46-2L138,217.79v45.73a3.25,3.25,0,1,1-6.5,0Z"/><path class="cls-1" d="M215.65,210.28a3.34,3.34,0,1,1,6.67,0v53.15a3.34,3.34,0,1,1-6.67,0Z"/><path class="cls-1" d="M256.49,210.37a3.35,3.35,0,0,1,3.29-3.3h.76a3.65,3.65,0,0,1,3.12,1.78l21.09,31.72,21.09-31.72a3.58,3.58,0,0,1,3.12-1.78h.76a3.35,3.35,0,0,1,3.29,3.3v53.06a3.37,3.37,0,0,1-3.29,3.38,3.44,3.44,0,0,1-3.37-3.38v-44l-18.9,27.76a3.26,3.26,0,0,1-2.79,1.69,3.38,3.38,0,0,1-2.86-1.69L263,219.48v44a3.25,3.25,0,1,1-6.49,0Z"/><path class="cls-1" d="M343,262l24-52.39a4.35,4.35,0,0,1,4.22-3h.33a4.26,4.26,0,0,1,4.14,3l24,52.3a4.65,4.65,0,0,1,.42,1.69,3.21,3.21,0,0,1-3.21,3.21,3.64,3.64,0,0,1-3.29-2.45l-6.16-13.58H355l-6.16,13.75a3.35,3.35,0,0,1-3.21,2.28,3,3,0,0,1-3-3A3.8,3.8,0,0,1,343,262Zm41.76-17.3-13.58-30.2-13.59,30.2Z"/><polygon class="cls-1" points="234.41 34.36 216.41 113.92 226.07 154.31 244.07 74.75 234.41 34.36"/><polygon class="cls-1" points="183.27 13.7 162.18 106.97 170.26 154.31 191.36 61.05 183.27 13.7"/><polygon class="cls-2" points="149.35 0 114.45 154.31 151.47 154.31 162.18 106.97 183.27 13.7 149.35 0"/><polygon class="cls-3" points="200.49 20.66 191.36 61.05 170.26 154.31 207.28 154.31 216.41 113.92 234.41 34.36 200.49 20.66"/><polygon class="cls-4" points="251.63 41.31 244.07 74.75 226.07 154.31 263.09 154.31 285.55 55.01 251.63 41.31"/></svg>