<svg id="Layer_1" data-name="Layer 1" xmlns="http://www.w3.org/2000/svg" viewBox="0 0 500.09 107.2"><defs><style>.cls-1{fill:#16181c;}.cls-2{fill:#ff512f;}.cls-3{fill:#317aff;}.cls-4{fill:#91919d;}</style></defs><polygon class="cls-1" points="83.43 23.87 70.92 79.14 77.63 107.2 90.13 51.93 83.43 23.87"/><polygon class="cls-1" points="47.9 9.52 33.24 74.31 38.86 107.2 53.52 42.41 47.9 9.52"/><polygon class="cls-2" points="24.34 0 0.09 107.2 25.81 107.2 33.24 74.31 47.9 9.52 24.34 0"/><polygon class="cls-3" points="59.86 14.35 53.52 42.41 38.86 107.2 64.58 107.2 70.92 79.14 83.43 23.87 59.86 14.35"/><polygon class="cls-4" points="95.39 28.7 90.13 51.93 77.63 107.2 103.35 107.2 118.95 38.22 95.39 28.7"/><path class="cls-1" d="M160.1,59.35a2.84,2.84,0,0,1,2.8-2.79h.64a3.12,3.12,0,0,1,2.66,1.5L184.13,85l17.92-26.89a3.06,3.06,0,0,1,2.66-1.5h.64a2.84,2.84,0,0,1,2.8,2.79v45a2.86,2.86,0,0,1-2.8,2.86,2.92,2.92,0,0,1-2.87-2.86V67L186.42,90.53A2.77,2.77,0,0,1,184.05,92a2.87,2.87,0,0,1-2.43-1.43l-16-23.46v37.34a2.76,2.76,0,1,1-5.52,0Z"/><path class="cls-1" d="M237.19,59.27a2.84,2.84,0,1,1,5.67,0v45.07a2.84,2.84,0,1,1-5.67,0Z"/><path class="cls-1" d="M271.9,59.35a2.84,2.84,0,0,1,2.8-2.79h.79a3.47,3.47,0,0,1,2.87,1.64L308.83,97V59.2a2.76,2.76,0,1,1,5.52,0v45.21a2.53,2.53,0,0,1-2.58,2.64h-.28a3.88,3.88,0,0,1-2.94-1.71l-31.13-39.7v38.77a2.76,2.76,0,1,1-5.52,0Z"/><path class="cls-1" d="M343.4,59.27a2.83,2.83,0,1,1,5.66,0v45.07a2.83,2.83,0,1,1-5.66,0Z"/><path class="cls-1" d="M378.11,59.35a2.84,2.84,0,0,1,2.79-2.79h.65a3.09,3.09,0,0,1,2.65,1.5L402.13,85l17.93-26.89a3,3,0,0,1,2.65-1.5h.65a2.84,2.84,0,0,1,2.79,2.79v45a2.86,2.86,0,0,1-2.79,2.86,2.92,2.92,0,0,1-2.87-2.86V67L404.43,90.53A2.79,2.79,0,0,1,402.06,92a2.89,2.89,0,0,1-2.44-1.43l-16-23.46v37.34a2.76,2.76,0,1,1-5.52,0Z"/><path class="cls-1" d="M451.61,103.12,472,58.7a3.7,3.7,0,0,1,3.58-2.5h.29a3.63,3.63,0,0,1,3.52,2.5l20.36,44.35a3.72,3.72,0,0,1,.36,1.43,2.72,2.72,0,0,1-2.73,2.72,3.08,3.08,0,0,1-2.79-2.08l-5.24-11.51H461.8l-5.24,11.66a2.84,2.84,0,0,1-2.72,1.93,2.58,2.58,0,0,1-2.59-2.58A3.32,3.32,0,0,1,451.61,103.12Zm35.5-14.66L475.56,62.85,464,88.46Z"/></svg>