<svg id="Layer_1" data-name="Layer 1" xmlns="http://www.w3.org/2000/svg" viewBox="0 0 300 64.32"><defs><style>.cls-1{fill:#16181c;}.cls-2{fill:#ff512f;}.cls-3{fill:#317aff;}.cls-4{fill:#91919d;}</style></defs><polygon class="cls-1" points="50 14.32 42.5 47.48 46.52 64.32 54.03 31.16 50 14.32"/><polygon class="cls-1" points="28.69 5.71 19.89 44.58 23.26 64.32 32.06 25.45 28.69 5.71"/><polygon class="cls-2" points="14.55 0 0 64.32 15.43 64.32 19.89 44.58 28.69 5.71 14.55 0"/><polygon class="cls-3" points="35.86 8.61 32.06 25.45 23.26 64.32 38.69 64.32 42.5 47.48 50 14.32 35.86 8.61"/><polygon class="cls-4" points="57.18 17.22 54.03 31.16 46.52 64.32 61.95 64.32 71.32 22.93 57.18 17.22"/><path class="cls-1" d="M96,35.61a1.71,1.71,0,0,1,1.68-1.68h.38a1.85,1.85,0,0,1,1.59.91L110.42,51l10.76-16.13a1.82,1.82,0,0,1,1.59-.91h.39a1.72,1.72,0,0,1,1.68,1.68v27a1.72,1.72,0,0,1-1.68,1.72,1.75,1.75,0,0,1-1.72-1.72V40.2L111.8,54.32a1.67,1.67,0,0,1-1.42.86,1.72,1.72,0,0,1-1.46-.86l-9.6-14.08v22.4a1.66,1.66,0,1,1-3.31,0Z"/><path class="cls-1" d="M142.26,35.56a1.7,1.7,0,1,1,3.4,0v27a1.7,1.7,0,1,1-3.4,0Z"/><path class="cls-1" d="M163.09,35.61a1.71,1.71,0,0,1,1.68-1.68h.47a2.09,2.09,0,0,1,1.72,1l18.29,23.26V35.52a1.66,1.66,0,1,1,3.31,0V62.64A1.52,1.52,0,0,1,187,64.23h-.17a2.35,2.35,0,0,1-1.77-1L166.4,39.38V62.64a1.66,1.66,0,1,1-3.31,0Z"/><path class="cls-1" d="M206,35.56a1.7,1.7,0,1,1,3.39,0v27a1.7,1.7,0,1,1-3.39,0Z"/><path class="cls-1" d="M226.81,35.61a1.71,1.71,0,0,1,1.68-1.68h.39a1.87,1.87,0,0,1,1.59.91L241.22,51,252,34.84a1.83,1.83,0,0,1,1.59-.91H254a1.72,1.72,0,0,1,1.68,1.68v27A1.72,1.72,0,0,1,254,64.32a1.75,1.75,0,0,1-1.72-1.72V40.2L242.6,54.32a1.67,1.67,0,0,1-1.42.86,1.73,1.73,0,0,1-1.46-.86l-9.6-14.08v22.4a1.66,1.66,0,1,1-3.31,0Z"/><path class="cls-1" d="M270.91,61.87l12.22-26.65a2.23,2.23,0,0,1,2.15-1.5h.18a2.18,2.18,0,0,1,2.11,1.5l12.21,26.61a2.28,2.28,0,0,1,.22.86,1.63,1.63,0,0,1-1.64,1.63,1.85,1.85,0,0,1-1.67-1.25l-3.14-6.91H277l-3.14,7a1.7,1.7,0,0,1-1.63,1.16,1.54,1.54,0,0,1-1.55-1.55A2,2,0,0,1,270.91,61.87Zm21.3-8.8-6.93-15.36-6.92,15.36Z"/></svg>