<svg id="Layer_1" data-name="Layer 1" xmlns="http://www.w3.org/2000/svg" viewBox="0 0 800 171.52"><defs><style>.cls-1{fill:#16181c;}.cls-2{fill:#ff512f;}.cls-3{fill:#317aff;}.cls-4{fill:#91919d;}</style></defs><polygon class="cls-1" points="133.34 38.19 113.33 126.62 124.07 171.51 144.07 83.08 133.34 38.19"/><polygon class="cls-1" points="76.5 15.23 53.05 118.89 62.03 171.51 85.48 67.85 76.5 15.23"/><polygon class="cls-2" points="38.8 0 0 171.51 41.15 171.51 53.05 118.89 76.5 15.23 38.8 0"/><polygon class="cls-3" points="95.64 22.96 85.48 67.85 62.03 171.51 103.18 171.51 113.33 126.62 133.34 38.19 95.64 22.96"/><polygon class="cls-4" points="152.48 45.92 144.07 83.08 124.07 171.51 165.21 171.51 190.18 61.14 152.48 45.92"/><path class="cls-1" d="M256,95a4.55,4.55,0,0,1,4.48-4.46h1a5,5,0,0,1,4.24,2.4l28.69,43,28.68-43a4.89,4.89,0,0,1,4.25-2.4h1A4.55,4.55,0,0,1,332.89,95v72a4.57,4.57,0,0,1-4.47,4.58,4.68,4.68,0,0,1-4.59-4.58V107.2l-25.7,37.65a4.44,4.44,0,0,1-3.79,2.29,4.62,4.62,0,0,1-3.9-2.29l-25.58-37.54v59.74a4.42,4.42,0,1,1-8.84,0Z"/><path class="cls-1" d="M379.37,94.84a4.53,4.53,0,1,1,9.06,0v72.1a4.53,4.53,0,1,1-9.06,0Z"/><path class="cls-1" d="M434.9,95a4.55,4.55,0,0,1,4.47-4.46h1.27c2.06,0,3.32,1,4.59,2.63l48.76,62V94.72a4.42,4.42,0,1,1,8.83,0v72.33a4.07,4.07,0,0,1-4.13,4.24h-.46c-2,0-3.32-1.15-4.7-2.75L443.73,105v62a4.42,4.42,0,1,1-8.83,0Z"/><path class="cls-1" d="M549.3,94.84a4.53,4.53,0,1,1,9.06,0v72.1a4.53,4.53,0,1,1-9.06,0Z"/><path class="cls-1" d="M604.83,95a4.55,4.55,0,0,1,4.47-4.46h1a5,5,0,0,1,4.24,2.4l28.69,43,28.68-43a4.88,4.88,0,0,1,4.24-2.4h1A4.55,4.55,0,0,1,681.7,95v72a4.57,4.57,0,0,1-4.47,4.58,4.67,4.67,0,0,1-4.59-4.58V107.2l-25.7,37.65a4.45,4.45,0,0,1-3.79,2.29,4.61,4.61,0,0,1-3.9-2.29l-25.59-37.54v59.74a4.42,4.42,0,1,1-8.83,0Z"/><path class="cls-1" d="M722.44,165,755,93.92c1.15-2.51,2.87-4,5.74-4h.46a5.78,5.78,0,0,1,5.62,4l32.59,71a6.15,6.15,0,0,1,.57,2.29,4.36,4.36,0,0,1-4.36,4.35,4.94,4.94,0,0,1-4.47-3.32l-8.38-18.43H738.73l-8.38,18.66a4.54,4.54,0,0,1-4.36,3.09,4.12,4.12,0,0,1-4.13-4.12A5.23,5.23,0,0,1,722.44,165Zm56.79-23.46-18.47-41-18.47,41Z"/></svg>