<?xml version="1.0" encoding="UTF-8"?><svg id="Layer_2" xmlns="http://www.w3.org/2000/svg" viewBox="0 0 200 200"><defs><style>.cls-1{fill:#16181c;}</style></defs><path class="cls-1" d="M0,0V200H200V0H0ZM40,180h0c-11.05,0-20-8.95-20-20h0c0-11.05,8.95-20,20-20h0c11.05,0,20,8.95,20,20h0c0,11.05-8.95,20-20,20Zm0-60h0c-11.05,0-20-8.95-20-20h0c0-11.05,8.95-20,20-20h0c11.05,0,20,8.95,20,20h0c0,11.05-8.95,20-20,20Zm0-60h0c-11.05,0-20-8.95-20-20h0c0-11.05,8.95-20,20-20h0c11.05,0,20,8.95,20,20h0c0,11.05-8.95,20-20,20Zm60,120h0c-11.05,0-20-8.95-20-20h0c0-11.05,8.95-20,20-20h0c11.05,0,20,8.95,20,20h0c0,11.05-8.95,20-20,20Zm0-60h0c-11.05,0-20-8.95-20-20h0c0-11.05,8.95-20,20-20h0c11.05,0,20,8.95,20,20h0c0,11.05-8.95,20-20,20Zm0-60h0c-11.05,0-20-8.95-20-20h0c0-11.05,8.95-20,20-20h0c11.05,0,20,8.95,20,20h0c0,11.05-8.95,20-20,20Zm60,120h0c-11.05,0-20-8.95-20-20h0c0-11.05,8.95-20,20-20h0c11.05,0,20,8.95,20,20h0c0,11.05-8.95,20-20,20Zm0-60h0c-11.05,0-20-8.95-20-20h0c0-11.05,8.95-20,20-20h0c11.05,0,20,8.95,20,20h0c0,11.05-8.95,20-20,20Zm0-60h0c-11.05,0-20-8.95-20-20h0c0-11.05,8.95-20,20-20h0c11.05,0,20,8.95,20,20h0c0,11.05-8.95,20-20,20Z"/></svg>