<svg id="Layer_1" data-name="Layer 1" xmlns="http://www.w3.org/2000/svg" viewBox="0 0 50 50"><defs><style>.cls-1{fill:#fff;}.cls-2{fill:#17171c;}.cls-3{fill:#ff522e;}.cls-4{fill:#317aff;}.cls-5{fill:#8f8f9b;}</style></defs><rect class="cls-1" width="50" height="50" rx="2.46"/><polygon class="cls-2" points="30.45 16.34 27.6 28.93 29.13 35.33 31.97 22.73 30.45 16.34"/><polygon class="cls-2" points="22.35 13.07 19.01 27.83 20.29 35.33 23.63 20.57 22.35 13.07"/><polygon class="cls-3" points="16.98 10.9 11.45 35.33 17.31 35.33 19.01 27.83 22.35 13.07 16.98 10.9"/><polygon class="cls-4" points="25.08 14.18 23.63 20.57 20.29 35.33 26.15 35.33 27.6 28.93 30.45 16.34 25.08 14.18"/><polygon class="cls-5" points="33.17 17.44 31.98 22.73 29.13 35.33 34.99 35.33 38.54 19.61 33.17 17.44"/></svg>