<svg id="Layer_1" data-name="Layer 1" xmlns="http://www.w3.org/2000/svg" viewBox="0 0 100 100"><defs><style>.cls-1{fill:#fff;}.cls-2{fill:#17171c;}.cls-3{fill:#ff522e;}.cls-4{fill:#317aff;}.cls-5{fill:#8f8f9b;}</style></defs><rect class="cls-1" width="100" height="100" rx="4.92"/><polygon class="cls-2" points="60.89 32.68 55.2 57.87 58.25 70.65 63.94 45.47 60.89 32.68"/><polygon class="cls-2" points="44.7 26.14 38.03 55.67 40.59 70.66 47.26 41.13 44.7 26.14"/><polygon class="cls-3" points="33.95 21.81 22.91 70.65 34.63 70.65 38.02 55.66 44.7 26.14 33.95 21.81"/><polygon class="cls-4" points="50.16 28.36 47.26 41.14 40.59 70.65 52.3 70.65 55.2 57.87 60.9 32.68 50.16 28.36"/><polygon class="cls-5" points="66.34 34.88 63.95 45.47 58.25 70.65 69.97 70.65 77.07 39.22 66.34 34.88"/></svg>