<svg id="Layer_1" data-name="Layer 1" xmlns="http://www.w3.org/2000/svg" viewBox="0 0 700.55 700"><defs><style>.cls-1{fill:#fff;}.cls-2{fill:#a7a7b0;}.cls-3{fill:#91919d;}.cls-4{fill:#bdbdc4;}</style></defs><path class="cls-1" d="M0,601.22a5.86,5.86,0,0,1,5.76-5.75H7.09a6.39,6.39,0,0,1,5.46,3.1l36.91,55.51,36.91-55.51a6.26,6.26,0,0,1,5.47-3.1h1.32a5.85,5.85,0,0,1,5.76,5.75v92.87A5.89,5.89,0,0,1,93.16,700a6,6,0,0,1-5.9-5.91V617L54.19,665.6c-1.33,1.92-2.81,2.95-4.88,2.95a6,6,0,0,1-5-2.95L11.37,617.17v77.07a5.69,5.69,0,1,1-11.37,0Z"/><path class="cls-1" d="M158.72,601.08a5.84,5.84,0,1,1,11.67,0v93a5.84,5.84,0,1,1-11.67,0Z"/><path class="cls-1" d="M230.18,601.22a5.86,5.86,0,0,1,5.76-5.75h1.63c2.65,0,4.28,1.33,5.9,3.39l62.75,80v-78a5.69,5.69,0,1,1,11.37,0v93.31a5.23,5.23,0,0,1-5.31,5.46h-.6c-2.51,0-4.28-1.47-6.05-3.54l-64.08-81.94v80a5.69,5.69,0,1,1-11.37,0Z"/><path class="cls-1" d="M377.39,601.08a5.83,5.83,0,1,1,11.66,0v93a5.83,5.83,0,1,1-11.66,0Z"/><path class="cls-1" d="M448.85,601.22a5.86,5.86,0,0,1,5.76-5.75h1.33a6.39,6.39,0,0,1,5.46,3.1l36.91,55.51,36.91-55.51a6.26,6.26,0,0,1,5.47-3.1H542a5.85,5.85,0,0,1,5.76,5.75v92.87A5.89,5.89,0,0,1,542,700a6,6,0,0,1-5.9-5.91V617L503,665.6c-1.33,1.92-2.81,2.95-4.88,2.95a6,6,0,0,1-5-2.95l-32.92-48.43v77.07a5.69,5.69,0,1,1-11.37,0Z"/><path class="cls-1" d="M600.19,691.58l41.93-91.68c1.48-3.25,3.69-5.17,7.38-5.17h.6c3.54,0,5.9,1.92,7.23,5.17l41.93,91.54a7.9,7.9,0,0,1,.74,2.95,5.61,5.61,0,0,1-5.61,5.61c-2.81,0-4.73-1.92-5.76-4.28L677.85,672H621.16L610.38,696a5.85,5.85,0,0,1-5.61,4,5.3,5.3,0,0,1-5.32-5.32A6.77,6.77,0,0,1,600.19,691.58Zm73.09-30.26L649.5,608.46l-23.77,52.86Z"/><polygon class="cls-1" points="459.45 109.27 402.21 362.32 432.92 490.78 490.16 237.73 459.45 109.27"/><polygon class="cls-1" points="296.8 43.57 229.71 340.2 255.41 490.78 322.51 194.16 296.8 43.57"/><polygon class="cls-2" points="188.92 0 77.91 490.78 195.64 490.78 229.71 340.2 296.8 43.57 188.92 0"/><polygon class="cls-3" points="351.57 65.69 322.51 194.16 255.41 490.78 373.15 490.78 402.21 362.32 459.45 109.27 351.57 65.69"/><polygon class="cls-4" points="514.21 131.39 490.16 237.73 432.92 490.78 550.65 490.78 622.09 174.96 514.21 131.39"/></svg>