<svg id="Layer_1" data-name="Layer 1" xmlns="http://www.w3.org/2000/svg" viewBox="0 0 900.17 900"><defs><style>.cls-1{fill:#fff;}.cls-2{fill:#a7a7b0;}.cls-3{fill:#91919d;}.cls-4{fill:#bdbdc4;}</style></defs><path class="cls-1" d="M.08,773a7.54,7.54,0,0,1,7.41-7.4H9.2a8.22,8.22,0,0,1,7,4L63.68,841l47.46-71.37a8,8,0,0,1,7-4h1.71a7.54,7.54,0,0,1,7.4,7.4V892.41a7.58,7.58,0,0,1-7.4,7.59,7.74,7.74,0,0,1-7.59-7.59V793.32L69.75,855.77c-1.71,2.47-3.6,3.8-6.26,3.8s-4.75-1.33-6.46-3.8L14.7,793.5v99.1a7.31,7.31,0,1,1-14.62,0Z"/><path class="cls-1" d="M204.16,772.81a7.5,7.5,0,1,1,15,0v119.6a7.5,7.5,0,1,1-15,0Z"/><path class="cls-1" d="M296,773a7.53,7.53,0,0,1,7.4-7.4h2.09c3.41,0,5.5,1.71,7.59,4.37L393.8,872.85V772.62a7.31,7.31,0,1,1,14.62,0v120a6.74,6.74,0,0,1-6.84,7h-.76c-3.23,0-5.5-1.9-7.78-4.56L310.65,789.71V892.6a7.31,7.31,0,1,1-14.61,0Z"/><path class="cls-1" d="M485.3,772.81a7.5,7.5,0,1,1,15,0v119.6a7.5,7.5,0,1,1-15,0Z"/><path class="cls-1" d="M577.18,773a7.53,7.53,0,0,1,7.4-7.4h1.71a8.21,8.21,0,0,1,7,4L640.77,841l47.46-71.37a8.05,8.05,0,0,1,7-4H697a7.53,7.53,0,0,1,7.4,7.4V892.41A7.57,7.57,0,0,1,697,900a7.74,7.74,0,0,1-7.59-7.59V793.32l-42.52,62.45c-1.71,2.47-3.61,3.8-6.27,3.8s-4.74-1.33-6.45-3.8L591.79,793.5v99.1a7.31,7.31,0,1,1-14.61,0Z"/><path class="cls-1" d="M771.76,889.18l53.91-117.89c1.9-4.17,4.75-6.64,9.49-6.64h.76c4.56,0,7.6,2.47,9.3,6.64L899.14,889a10.12,10.12,0,0,1,.94,3.8,7.21,7.21,0,0,1-7.21,7.21c-3.61,0-6.07-2.47-7.4-5.5l-13.86-30.57h-72.9l-13.85,30.94c-1.33,3.23-3.8,5.13-7.22,5.13a6.81,6.81,0,0,1-6.83-6.83A8.65,8.65,0,0,1,771.76,889.18Zm94-38.92-30.57-68-30.56,68Z"/><polygon class="cls-1" points="590.8 140.49 517.21 465.83 556.69 631 630.29 305.65 590.8 140.49"/><polygon class="cls-1" points="381.69 56.02 295.42 437.39 328.47 631 414.74 249.63 381.69 56.02"/><polygon class="cls-2" points="242.99 0 100.25 631 251.63 631 295.42 437.39 381.69 56.02 242.99 0"/><polygon class="cls-3" points="452.1 84.46 414.74 249.63 328.47 631 479.85 631 517.21 465.83 590.8 140.49 452.1 84.46"/><polygon class="cls-4" points="661.22 168.93 630.29 305.65 556.69 631 708.07 631 799.91 224.95 661.22 168.93"/></svg>