<svg id="Layer_1" data-name="Layer 1" xmlns="http://www.w3.org/2000/svg" viewBox="0 0 400 400"><defs><style>.cls-1{fill:#fff;}.cls-2{fill:#a7a7b0;}.cls-3{fill:#91919d;}.cls-4{fill:#bdbdc4;}</style></defs><path class="cls-1" d="M0,343.56a3.35,3.35,0,0,1,3.29-3.29h.76A3.65,3.65,0,0,1,7.17,342l21.09,31.72L49.36,342a3.56,3.56,0,0,1,3.12-1.77h.76a3.35,3.35,0,0,1,3.29,3.29v53.07A3.37,3.37,0,0,1,53.24,400a3.44,3.44,0,0,1-3.38-3.37V352.58L31,380.34A3.26,3.26,0,0,1,28.18,382a3.4,3.4,0,0,1-2.87-1.69L6.5,352.67v44A3.24,3.24,0,0,1,3.21,400,3.22,3.22,0,0,1,0,396.71Z"/><path class="cls-1" d="M90.7,343.47a3.33,3.33,0,1,1,6.66,0v53.16a3.33,3.33,0,1,1-6.66,0Z"/><path class="cls-1" d="M131.53,343.56a3.35,3.35,0,0,1,3.29-3.29h.93a4.09,4.09,0,0,1,3.38,1.94L175,387.94V343.39a3.25,3.25,0,1,1,6.5,0v53.32a3,3,0,0,1-3,3.12h-.33c-1.44,0-2.45-.84-3.46-2L138,351v45.73a3.25,3.25,0,1,1-6.5,0Z"/><path class="cls-1" d="M215.65,343.47a3.34,3.34,0,1,1,6.67,0v53.16a3.34,3.34,0,1,1-6.67,0Z"/><path class="cls-1" d="M256.49,343.56a3.35,3.35,0,0,1,3.29-3.29h.76a3.67,3.67,0,0,1,3.12,1.77l21.09,31.72L305.84,342a3.57,3.57,0,0,1,3.12-1.77h.76a3.35,3.35,0,0,1,3.29,3.29v53.07a3.37,3.37,0,0,1-3.29,3.37,3.44,3.44,0,0,1-3.37-3.37V352.58l-18.9,27.76a3.26,3.26,0,0,1-2.79,1.69,3.38,3.38,0,0,1-2.86-1.69L263,352.67v44a3.25,3.25,0,1,1-6.49,0Z"/><path class="cls-1" d="M343,395.19l24-52.39a4.35,4.35,0,0,1,4.22-3h.33a4.26,4.26,0,0,1,4.14,3l24,52.31a4.55,4.55,0,0,1,.42,1.68,3.2,3.2,0,0,1-3.21,3.21,3.64,3.64,0,0,1-3.29-2.45L387.34,384H355l-6.16,13.75a3.34,3.34,0,0,1-3.21,2.28,3,3,0,0,1-3-3A3.85,3.85,0,0,1,343,395.19Zm41.76-17.29-13.58-30.21L357.56,377.9Z"/><polygon class="cls-1" points="262.54 62.44 229.83 207.04 247.38 280.44 280.09 135.85 262.54 62.44"/><polygon class="cls-1" points="169.6 24.9 131.26 194.4 145.95 280.44 184.29 110.95 169.6 24.9"/><polygon class="cls-2" points="107.96 0 44.52 280.44 111.8 280.44 131.26 194.4 169.6 24.9 107.96 0"/><polygon class="cls-3" points="200.9 37.54 184.29 110.95 145.95 280.44 213.23 280.44 229.83 207.04 262.54 62.44 200.9 37.54"/><polygon class="cls-4" points="293.84 75.08 280.09 135.85 247.38 280.44 314.66 280.44 355.48 99.98 293.84 75.08"/></svg>