<?xml version="1.0" encoding="UTF-8"?><svg id="Layer_2" xmlns="http://www.w3.org/2000/svg" viewBox="0 0 200 200"><defs><style>.cls-1{fill:#16181c;}</style></defs><path class="cls-1" d="M155,0C130.14,0,110,20.15,110,45s20.15,45,45,45,45-20.15,45-45S179.85,0,155,0Zm25,45c0,13.81-11.19,25-25,25h0c-13.81,0-25-11.19-25-25h0c0-13.81,11.19-25,25-25h0c13.81,0,25,11.19,25,25h0Z"/><path class="cls-1" d="M45,0C20.15,0,0,20.15,0,45s20.15,45,45,45,45-20.15,45-45S69.85,0,45,0Zm25,45c0,13.81-11.19,25-25,25h0c-13.81,0-25-11.19-25-25h0c0-13.81,11.19-25,25-25h0c13.81,0,25,11.19,25,25h0Z"/><path class="cls-1" d="M45,110C20.15,110,0,130.14,0,155s20.15,45,45,45,45-20.15,45-45-20.15-45-45-45Zm25,45c0,13.81-11.19,25-25,25h0c-13.81,0-25-11.19-25-25h0c0-13.81,11.19-25,25-25h0c13.81,0,25,11.19,25,25h0Z"/><path class="cls-1" d="M155,110c-24.85,0-45,20.15-45,45s20.15,45,45,45,45-20.15,45-45-20.15-45-45-45Zm25,45c0,13.81-11.19,25-25,25s-25-11.19-25-25h0c0-13.81,11.19-25,25-25s25,11.19,25,25h0Z"/></svg>