<?xml version="1.0" encoding="UTF-8"?><svg id="Layer_2" xmlns="http://www.w3.org/2000/svg" viewBox="0 0 200 200"><defs><style>.cls-1{fill:#16181c;}</style></defs><rect class="cls-1" x="150" y="0" width="50" height="50" rx="25" ry="25"/><rect class="cls-1" x="150" y="0" width="50" height="50" rx="25" ry="25"/><rect class="cls-1" x="0" y="0" width="50" height="50" rx="25" ry="25"/><rect class="cls-1" x="75" y="0" width="50" height="50" rx="25" ry="25"/><rect class="cls-1" x="150" y="75" width="50" height="50" rx="25" ry="25"/><rect class="cls-1" x="0" y="75" width="50" height="50" rx="25" ry="25"/><rect class="cls-1" x="75" y="75" width="50" height="50" rx="25" ry="25"/><rect class="cls-1" x="150" y="150" width="50" height="50" rx="25" ry="25"/><rect class="cls-1" x="0" y="150" width="50" height="50" rx="25" ry="25"/><rect class="cls-1" x="75" y="150" width="50" height="50" rx="25" ry="25"/></svg>