<svg id="Layer_1" data-name="Layer 1" xmlns="http://www.w3.org/2000/svg" viewBox="0 0 700 466.91"><defs><style>.cls-1{fill:#16181c;}.cls-2{fill:#ff512f;}.cls-3{fill:#317aff;}.cls-4{fill:#91919d;}</style></defs><path class="cls-1" d="M0,368.14a5.87,5.87,0,0,1,5.76-5.76H7.09a6.39,6.39,0,0,1,5.46,3.1L49.46,421l36.91-55.52a6.26,6.26,0,0,1,5.47-3.1h1.32a5.86,5.86,0,0,1,5.76,5.76V461a5.88,5.88,0,0,1-5.76,5.9,6,6,0,0,1-5.9-5.9V383.94L54.19,432.51c-1.33,1.92-2.81,3-4.88,3a6,6,0,0,1-5-3L11.37,384.08v77.08a5.67,5.67,0,0,1-5.76,5.75A5.64,5.64,0,0,1,0,461.16Z"/><path class="cls-1" d="M158.72,368a5.84,5.84,0,1,1,11.67,0v93a5.84,5.84,0,1,1-11.67,0Z"/><path class="cls-1" d="M230.18,368.14a5.87,5.87,0,0,1,5.76-5.76h1.63c2.65,0,4.28,1.33,5.9,3.4l62.75,80v-78a5.69,5.69,0,1,1,11.37,0v93.32a5.23,5.23,0,0,1-5.31,5.46h-.6c-2.51,0-4.28-1.48-6.05-3.54l-64.08-81.95v80a5.69,5.69,0,1,1-11.37,0Z"/><path class="cls-1" d="M377.39,368a5.83,5.83,0,1,1,11.66,0v93a5.83,5.83,0,1,1-11.66,0Z"/><path class="cls-1" d="M448.85,368.14a5.87,5.87,0,0,1,5.76-5.76h1.33a6.39,6.39,0,0,1,5.46,3.1L498.31,421l36.91-55.52a6.26,6.26,0,0,1,5.47-3.1H542a5.86,5.86,0,0,1,5.76,5.76V461a5.88,5.88,0,0,1-5.76,5.9,6,6,0,0,1-5.9-5.9V383.94L503,432.51c-1.33,1.92-2.81,3-4.88,3a6,6,0,0,1-5-3l-32.92-48.43v77.08a5.69,5.69,0,1,1-11.37,0Z"/><path class="cls-1" d="M600.19,458.5l41.93-91.69c1.48-3.25,3.69-5.17,7.38-5.17h.6c3.54,0,5.9,1.92,7.23,5.17l41.93,91.54a7.94,7.94,0,0,1,.74,2.95,5.61,5.61,0,0,1-5.61,5.61c-2.81,0-4.73-1.92-5.76-4.28l-10.78-23.77H621.16l-10.78,24.07a5.84,5.84,0,0,1-5.61,4,5.3,5.3,0,0,1-5.32-5.31A6.72,6.72,0,0,1,600.19,458.5Zm73.09-30.27L649.5,375.37l-23.77,52.86Z"/><polygon class="cls-1" points="410.22 60.12 378.73 199.36 395.63 270.05 427.12 130.81 410.22 60.12"/><polygon class="cls-1" points="320.73 23.98 283.81 187.19 297.95 270.05 334.87 106.83 320.73 23.98"/><polygon class="cls-2" points="261.37 0 200.28 270.05 265.07 270.05 283.81 187.19 320.73 23.98 261.37 0"/><polygon class="cls-3" points="350.86 36.15 334.87 106.83 297.95 270.05 362.74 270.05 378.73 199.36 410.22 60.12 350.86 36.15"/><polygon class="cls-4" points="440.36 72.29 427.12 130.81 395.63 270.05 460.41 270.05 499.71 96.27 440.36 72.29"/></svg>