<svg id="Layer_1" data-name="Layer 1" xmlns="http://www.w3.org/2000/svg" viewBox="0 0 200 42.88"><defs><style>.cls-1{fill:#16181c;}.cls-2{fill:#a7a7b0;}.cls-3{fill:#91919d;}.cls-4{fill:#bdbdc4;}</style></defs><polygon class="cls-1" points="33.33 9.55 28.33 31.66 31.02 42.88 36.02 20.77 33.33 9.55"/><polygon class="cls-1" points="19.12 3.81 13.26 29.72 15.51 42.88 21.37 16.96 19.12 3.81"/><polygon class="cls-2" points="9.7 0 0 42.88 10.29 42.88 13.26 29.72 19.12 3.81 9.7 0"/><polygon class="cls-3" points="23.91 5.74 21.37 16.96 15.51 42.88 25.8 42.88 28.33 31.66 33.33 9.55 23.91 5.74"/><polygon class="cls-4" points="38.12 11.48 36.02 20.77 31.02 42.88 41.3 42.88 47.55 15.29 38.12 11.48"/><path class="cls-1" d="M64,23.74a1.14,1.14,0,0,1,1.11-1.12h.26a1.24,1.24,0,0,1,1.06.6L73.61,34l7.18-10.76a1.22,1.22,0,0,1,1.06-.6h.26a1.14,1.14,0,0,1,1.11,1.12v18a1.14,1.14,0,0,1-1.11,1.15A1.16,1.16,0,0,1,81,41.73V26.8l-6.43,9.41a1.11,1.11,0,0,1-.94.57,1.16,1.16,0,0,1-1-.57l-6.4-9.38V41.76a1.1,1.1,0,1,1-2.2,0Z"/><path class="cls-1" d="M94.84,23.71a1.14,1.14,0,1,1,2.27,0v18a1.14,1.14,0,1,1-2.27,0Z"/><path class="cls-1" d="M108.72,23.74a1.14,1.14,0,0,1,1.12-1.12h.32a1.4,1.4,0,0,1,1.15.66L123.5,38.79V23.68a1.11,1.11,0,1,1,2.21,0V41.76a1,1,0,0,1-1,1.06h-.11a1.54,1.54,0,0,1-1.18-.69L110.93,26.26v15.5a1.11,1.11,0,1,1-2.21,0Z"/><path class="cls-1" d="M137.32,23.71a1.14,1.14,0,1,1,2.27,0v18a1.14,1.14,0,1,1-2.27,0Z"/><path class="cls-1" d="M151.21,23.74a1.14,1.14,0,0,1,1.12-1.12h.25a1.26,1.26,0,0,1,1.07.6L160.82,34,168,23.22a1.22,1.22,0,0,1,1.06-.6h.26a1.14,1.14,0,0,1,1.12,1.12v18a1.15,1.15,0,0,1-1.12,1.15,1.17,1.17,0,0,1-1.15-1.15V26.8l-6.43,9.41a1.09,1.09,0,0,1-.94.57,1.17,1.17,0,0,1-1-.57l-6.39-9.38V41.76a1.11,1.11,0,0,1-1.12,1.12,1.09,1.09,0,0,1-1.09-1.12Z"/><path class="cls-1" d="M180.61,41.25l8.15-17.77a1.46,1.46,0,0,1,1.43-1h.11a1.45,1.45,0,0,1,1.41,1l8.15,17.74a1.64,1.64,0,0,1,.14.57,1.09,1.09,0,0,1-1.09,1.09,1.23,1.23,0,0,1-1.12-.83l-2.09-4.61h-11l-2.09,4.67a1.15,1.15,0,0,1-1.09.77,1,1,0,0,1-1-1A1.23,1.23,0,0,1,180.61,41.25Zm14.2-5.87-4.62-10.24-4.62,10.24Z"/></svg>