<svg id="Layer_1" data-name="Layer 1" xmlns="http://www.w3.org/2000/svg" viewBox="0 0 200 133.4"><defs><style>.cls-1{fill:#fff;}.cls-2{fill:#ff512f;}.cls-3{fill:#317aff;}.cls-4{fill:#91919d;}</style></defs><path class="cls-1" d="M0,105.18a1.68,1.68,0,0,1,1.65-1.64H2a1.85,1.85,0,0,1,1.57.88l10.54,15.86,10.55-15.86a1.78,1.78,0,0,1,1.56-.88h.38a1.67,1.67,0,0,1,1.64,1.64v26.54a1.68,1.68,0,0,1-1.64,1.68,1.72,1.72,0,0,1-1.69-1.68v-22l-9.45,13.88a1.64,1.64,0,0,1-1.39.84,1.71,1.71,0,0,1-1.43-.84L3.25,109.74v22A1.62,1.62,0,0,1,1.6,133.4,1.61,1.61,0,0,1,0,131.76Z"/><path class="cls-1" d="M45.35,105.14a1.67,1.67,0,1,1,3.33,0v26.58a1.67,1.67,0,1,1-3.33,0Z"/><path class="cls-1" d="M65.77,105.18a1.67,1.67,0,0,1,1.64-1.64h.47a2,2,0,0,1,1.68,1l17.93,22.86V105.1a1.63,1.63,0,1,1,3.25,0v26.66a1.5,1.5,0,0,1-1.52,1.56h-.17a2.3,2.3,0,0,1-1.73-1L69,108.89v22.87a1.62,1.62,0,1,1-3.24,0Z"/><path class="cls-1" d="M107.83,105.14a1.67,1.67,0,1,1,3.33,0v26.58a1.67,1.67,0,1,1-3.33,0Z"/><path class="cls-1" d="M128.24,105.18a1.68,1.68,0,0,1,1.65-1.64h.38a1.85,1.85,0,0,1,1.56.88l10.54,15.86,10.55-15.86a1.79,1.79,0,0,1,1.56-.88h.38a1.68,1.68,0,0,1,1.65,1.64v26.54a1.68,1.68,0,0,1-1.65,1.68,1.72,1.72,0,0,1-1.69-1.68v-22l-9.45,13.88a1.64,1.64,0,0,1-1.39.84,1.71,1.71,0,0,1-1.43-.84l-9.41-13.84v22a1.63,1.63,0,1,1-3.25,0Z"/><path class="cls-1" d="M171.48,131l12-26.2a2.18,2.18,0,0,1,2.11-1.47h.17a2.12,2.12,0,0,1,2.07,1.47l12,26.16a2.16,2.16,0,0,1,.21.84,1.6,1.6,0,0,1-1.6,1.6,1.82,1.82,0,0,1-1.65-1.22l-3.08-6.79h-16.2l-3.08,6.88a1.66,1.66,0,0,1-1.6,1.13,1.51,1.51,0,0,1-1.52-1.51A1.91,1.91,0,0,1,171.48,131Zm20.88-8.65-6.79-15.1-6.79,15.1Z"/><polygon class="cls-1" points="117.21 17.18 108.21 56.96 113.04 77.16 122.03 37.37 117.21 17.18"/><polygon class="cls-1" points="91.64 6.85 81.09 53.48 85.13 77.16 95.68 30.52 91.64 6.85"/><polygon class="cls-2" points="74.68 0 57.22 77.16 75.73 77.16 81.09 53.48 91.64 6.85 74.68 0"/><polygon class="cls-3" points="100.25 10.33 95.68 30.52 85.13 77.16 103.64 77.16 108.21 56.96 117.21 17.18 100.25 10.33"/><polygon class="cls-4" points="125.82 20.66 122.03 37.37 113.04 77.16 131.54 77.16 142.78 27.51 125.82 20.66"/></svg>