<svg id="Layer_1" data-name="Layer 1" xmlns="http://www.w3.org/2000/svg" viewBox="0 0 300 200.11"><defs><style>.cls-1{fill:#fff;}.cls-2{fill:#ff512f;}.cls-3{fill:#317aff;}.cls-4{fill:#91919d;}</style></defs><path class="cls-1" d="M0,157.77a2.51,2.51,0,0,1,2.47-2.46H3a2.76,2.76,0,0,1,2.34,1.32l15.82,23.8L37,156.63a2.67,2.67,0,0,1,2.34-1.32h.57a2.51,2.51,0,0,1,2.47,2.46v39.8a2.53,2.53,0,0,1-2.47,2.54,2.59,2.59,0,0,1-2.53-2.54v-33L23.22,185.36a2.44,2.44,0,0,1-2.09,1.27A2.54,2.54,0,0,1,19,185.36L4.87,164.61v33a2.44,2.44,0,1,1-4.87,0Z"/><path class="cls-1" d="M68,157.71a2.5,2.5,0,1,1,5,0v39.86a2.5,2.5,0,1,1-5,0Z"/><path class="cls-1" d="M98.65,157.77a2.51,2.51,0,0,1,2.47-2.46h.69a3.09,3.09,0,0,1,2.54,1.45l26.89,34.3V157.65a2.44,2.44,0,1,1,4.87,0v40a2.24,2.24,0,0,1-2.28,2.34h-.25a3.42,3.42,0,0,1-2.6-1.52l-27.46-35.12v34.3a2.44,2.44,0,1,1-4.87,0Z"/><path class="cls-1" d="M161.74,157.71a2.5,2.5,0,1,1,5,0v39.86a2.5,2.5,0,1,1-5,0Z"/><path class="cls-1" d="M192.36,157.77a2.51,2.51,0,0,1,2.47-2.46h.57a2.74,2.74,0,0,1,2.34,1.32l15.82,23.8,15.82-23.8a2.69,2.69,0,0,1,2.34-1.32h.57a2.51,2.51,0,0,1,2.47,2.46v39.8a2.53,2.53,0,0,1-2.47,2.54,2.59,2.59,0,0,1-2.53-2.54v-33l-14.17,20.82a2.45,2.45,0,0,1-2.09,1.27,2.53,2.53,0,0,1-2.15-1.27l-14.11-20.75v33a2.44,2.44,0,1,1-4.88,0Z"/><path class="cls-1" d="M257.22,196.5l18-39.3a3.26,3.26,0,0,1,3.16-2.21h.25a3.19,3.19,0,0,1,3.1,2.21l18,39.24a3.35,3.35,0,0,1,.32,1.26,2.41,2.41,0,0,1-2.4,2.41,2.73,2.73,0,0,1-2.47-1.84l-4.62-10.19h-24.3l-4.62,10.32a2.5,2.5,0,0,1-2.4,1.71,2.27,2.27,0,0,1-2.28-2.28A2.92,2.92,0,0,1,257.22,196.5Zm31.33-13-10.19-22.66-10.19,22.66Z"/><polygon class="cls-1" points="175.81 25.77 162.31 85.44 169.55 115.73 183.05 56.06 175.81 25.77"/><polygon class="cls-1" points="137.46 10.28 121.63 80.22 127.69 115.73 143.52 45.78 137.46 10.28"/><polygon class="cls-2" points="112.02 0 85.84 115.73 113.6 115.73 121.63 80.22 137.46 10.28 112.02 0"/><polygon class="cls-3" points="150.37 15.49 143.52 45.78 127.69 115.73 155.46 115.73 162.31 85.44 175.81 25.77 150.37 15.49"/><polygon class="cls-4" points="188.72 30.98 183.05 56.06 169.55 115.73 197.32 115.73 214.16 41.26 188.72 30.98"/></svg>