<svg id="Layer_1" data-name="Layer 1" xmlns="http://www.w3.org/2000/svg" viewBox="0 0 100 66.7"><defs><style>.cls-1{fill:#fff;}.cls-2{fill:#ff512f;}.cls-3{fill:#317aff;}.cls-4{fill:#91919d;}</style></defs><path class="cls-1" d="M0,52.59a.84.84,0,0,1,.82-.82H1a.92.92,0,0,1,.78.44l5.28,7.93,5.27-7.93a.9.9,0,0,1,.78-.44h.19a.84.84,0,0,1,.82.82V65.86a.84.84,0,0,1-.82.84.86.86,0,0,1-.84-.84v-11L7.74,61.79a.82.82,0,0,1-.7.42.85.85,0,0,1-.71-.42L1.62,54.87v11a.8.8,0,0,1-.82.82.81.81,0,0,1-.8-.82Z"/><path class="cls-1" d="M22.67,52.57a.84.84,0,1,1,1.67,0V65.86a.84.84,0,1,1-1.67,0Z"/><path class="cls-1" d="M32.88,52.59a.84.84,0,0,1,.83-.82h.23a1,1,0,0,1,.84.48l9,11.44V52.55a.81.81,0,1,1,1.62,0V65.88a.75.75,0,0,1-.76.78h-.08a1.14,1.14,0,0,1-.87-.51l-9.15-11.7V65.88a.82.82,0,1,1-1.63,0Z"/><path class="cls-1" d="M53.91,52.57a.84.84,0,1,1,1.67,0V65.86a.84.84,0,1,1-1.67,0Z"/><path class="cls-1" d="M64.12,52.59a.84.84,0,0,1,.82-.82h.19a.9.9,0,0,1,.78.44l5.28,7.93,5.27-7.93a.9.9,0,0,1,.78-.44h.19a.84.84,0,0,1,.82.82V65.86a.84.84,0,0,1-.82.84.86.86,0,0,1-.84-.84v-11l-4.73,6.94a.82.82,0,0,1-.69.42.86.86,0,0,1-.72-.42l-4.7-6.92v11a.82.82,0,1,1-1.63,0Z"/><path class="cls-1" d="M85.74,65.5l6-13.1a1.1,1.1,0,0,1,1.06-.74h.08a1.06,1.06,0,0,1,1,.74l6,13.08a1,1,0,0,1,.11.42.8.8,0,0,1-.8.8.89.89,0,0,1-.82-.61l-1.54-3.4h-8.1L87.2,66.13a.83.83,0,0,1-.8.57.75.75,0,0,1-.76-.76A1,1,0,0,1,85.74,65.5Zm10.44-4.32-3.39-7.56-3.4,7.56Z"/><polygon class="cls-1" points="58.6 8.59 54.1 28.48 56.52 38.58 61.02 18.69 58.6 8.59"/><polygon class="cls-1" points="45.82 3.42 40.54 26.74 42.56 38.58 47.84 15.26 45.82 3.42"/><polygon class="cls-2" points="37.34 0 28.61 38.58 37.87 38.58 40.54 26.74 45.82 3.42 37.34 0"/><polygon class="cls-3" points="50.12 5.16 47.84 15.26 42.56 38.58 51.82 38.58 54.1 28.48 58.6 8.59 50.12 5.16"/><polygon class="cls-4" points="62.91 10.33 61.02 18.69 56.52 38.58 65.77 38.58 71.39 13.75 62.91 10.33"/></svg>