<svg id="Layer_1" data-name="Layer 1" xmlns="http://www.w3.org/2000/svg" viewBox="0 0 600 541.12"><defs><style>.cls-1{fill:#5a94ff;}</style></defs><path class="cls-1" d="M481.06,145,454.53,262.21,420.67,120.56l-118.94-48-32,141.64-28.35-166L122.4.09,0,541.21H129.81l37.56-166,28.34,166H325.52l32-141.64h0l33.86,141.64H521.23L600,193ZM120.22,529.21H15L131,16.5l96.4,38.94Zm54.08-184.7L234.41,78.8l28.34,166-60.1,265.71Zm141.63,184.7H210.73L310.32,88.93l96.4,38.94Zm81.49-14.52L363.56,373.05l51.11-226,33.87,141.64Zm114.23,14.52H406.44l83.21-367.85L586,200.3Z"/></svg>