<svg id="Layer_1" data-name="Layer 1" xmlns="http://www.w3.org/2000/svg" viewBox="0 0 100 90.19"><defs><style>.cls-1{fill:#5a94ff;}</style></defs><path class="cls-1" d="M80.18,24.14,75.76,43.69,70.11,20.08l-19.82-8L45,35.68,40.22,8,20.4,0,0,90.19H21.64l6.25-27.67,4.73,27.67H54.25l5.34-23.61h0l5.65,23.61H86.87l13.13-58ZM20,88.19H2.5L21.83,2.74,37.9,9.22Zm9-30.79,10-44.28,4.72,27.67-10,44.28ZM52.66,88.19H35.12l16.6-73.38L67.79,21.3Zm13.58-2.42L60.59,62.16,69.11,24.5l5.65,23.61Zm19,2.42H67.74L81.61,26.88l16.06,6.49Z"/></svg>