<svg id="Layer_1" data-name="Layer 1" xmlns="http://www.w3.org/2000/svg" viewBox="0 0 200 200"><defs><style>.cls-1{fill:#fff;}.cls-2{fill:#17171c;}.cls-3{fill:#ff522e;}.cls-4{fill:#317aff;}.cls-5{fill:#8f8f9b;}</style></defs><path class="cls-1" d="M200,100A100,100,0,1,1,100,0,100,100,0,0,1,200,100"/><polygon class="cls-2" points="121.8 65.66 110.4 116.05 116.52 141.64 127.89 91.24 121.8 65.66"/><polygon class="cls-2" points="89.41 52.57 76.04 111.65 81.16 141.65 94.53 82.56 89.41 52.57"/><polygon class="cls-3" points="67.89 43.9 45.79 141.64 69.24 141.64 76.02 111.64 89.38 52.56 67.89 43.9"/><polygon class="cls-4" points="100.31 57 94.52 82.58 81.16 141.64 104.61 141.64 110.4 116.05 121.8 65.65 100.31 57"/><polygon class="cls-5" points="132.71 70.06 127.92 91.24 116.52 141.64 139.96 141.64 154.17 78.74 132.71 70.06"/></svg>