<svg id="Layer_1" data-name="Layer 1" xmlns="http://www.w3.org/2000/svg" viewBox="0 0 50 50"><defs><style>.cls-1{fill:#fff;}.cls-2{fill:#17171c;}.cls-3{fill:#ff522e;}.cls-4{fill:#317aff;}.cls-5{fill:#8f8f9b;}</style></defs><path class="cls-1" d="M50,25A25,25,0,1,1,25,0,25,25,0,0,1,50,25"/><polygon class="cls-2" points="30.45 16.41 27.6 29.01 29.13 35.41 31.97 22.81 30.45 16.41"/><polygon class="cls-2" points="22.35 13.14 19.01 27.91 20.29 35.41 23.63 20.64 22.35 13.14"/><polygon class="cls-3" points="16.97 10.97 11.45 35.41 17.31 35.41 19 27.91 22.35 13.14 16.97 10.97"/><polygon class="cls-4" points="25.08 14.25 23.63 20.65 20.29 35.41 26.15 35.41 27.6 29.01 30.45 16.41 25.08 14.25"/><polygon class="cls-5" points="33.18 17.52 31.98 22.81 29.13 35.41 34.99 35.41 38.54 19.68 33.18 17.52"/></svg>