<svg id="Layer_1" data-name="Layer 1" xmlns="http://www.w3.org/2000/svg" viewBox="0 0 100 100"><defs><style>.cls-1{fill:#fff;}.cls-2{fill:#17171c;}.cls-3{fill:#ff522e;}.cls-4{fill:#317aff;}.cls-5{fill:#8f8f9b;}</style></defs><path class="cls-1" d="M100,50A50,50,0,1,1,50,0a50,50,0,0,1,50,50"/><polygon class="cls-2" points="60.9 32.83 55.2 58.03 58.26 70.82 63.95 45.62 60.9 32.83"/><polygon class="cls-2" points="44.7 26.29 38.02 55.82 40.58 70.82 47.26 41.28 44.7 26.29"/><polygon class="cls-3" points="33.95 21.95 22.89 70.82 34.62 70.82 38.01 55.82 44.69 26.28 33.95 21.95"/><polygon class="cls-4" points="50.16 28.5 47.26 41.29 40.58 70.82 52.3 70.82 55.2 58.03 60.9 32.83 50.16 28.5"/><polygon class="cls-5" points="66.35 35.03 63.96 45.62 58.26 70.82 69.98 70.82 77.09 39.37 66.35 35.03"/></svg>