<svg id="Layer_1" data-name="Layer 1" xmlns="http://www.w3.org/2000/svg" viewBox="0 0 100 15.04"><defs><style>.cls-1{fill:#16181c;}</style></defs><path class="cls-1" d="M0,.93A.84.84,0,0,1,.82.11H1a.92.92,0,0,1,.78.44L7.07,8.48,12.34.55a.9.9,0,0,1,.78-.44h.19a.84.84,0,0,1,.82.82V14.2a.84.84,0,0,1-.82.84.86.86,0,0,1-.84-.84v-11L7.74,10.13a.82.82,0,0,1-.7.42.85.85,0,0,1-.71-.42L1.62,3.21v11A.8.8,0,0,1,.8,15a.8.8,0,0,1-.8-.82Z"/><path class="cls-1" d="M22.67.91a.84.84,0,1,1,1.67,0V14.2a.84.84,0,1,1-1.67,0Z"/><path class="cls-1" d="M32.88.93a.84.84,0,0,1,.83-.82h.23a1,1,0,0,1,.84.49l9,11.43V.89a.81.81,0,1,1,1.62,0V14.22a.75.75,0,0,1-.76.78h-.08a1.15,1.15,0,0,1-.87-.5L34.51,2.79V14.22a.82.82,0,1,1-1.63,0Z"/><path class="cls-1" d="M53.91.91a.84.84,0,1,1,1.67,0V14.2a.84.84,0,1,1-1.67,0Z"/><path class="cls-1" d="M64.12.93a.84.84,0,0,1,.82-.82h.19a.9.9,0,0,1,.78.44l5.28,7.93L76.46.55a.9.9,0,0,1,.78-.44h.19a.84.84,0,0,1,.82.82V14.2a.84.84,0,0,1-.82.84.86.86,0,0,1-.84-.84v-11l-4.73,6.94a.82.82,0,0,1-.69.42.86.86,0,0,1-.72-.42l-4.7-6.92v11a.82.82,0,1,1-1.63,0Z"/><path class="cls-1" d="M85.74,13.84l6-13.1A1.1,1.1,0,0,1,92.79,0h.08a1.06,1.06,0,0,1,1,.74l6,13.08a1,1,0,0,1,.11.42.8.8,0,0,1-.8.8.89.89,0,0,1-.82-.61L96.84,11h-8.1L87.2,14.47a.83.83,0,0,1-.8.57.75.75,0,0,1-.76-.76A1,1,0,0,1,85.74,13.84ZM96.18,9.52,92.79,2l-3.4,7.55Z"/></svg>