<svg id="Layer_1" data-name="Layer 1" xmlns="http://www.w3.org/2000/svg" viewBox="0 0 500 75.19"><defs><style>.cls-1{fill:#16181c;}</style></defs><path class="cls-1" d="M0,4.64A4.19,4.19,0,0,1,4.11.53h.95A4.56,4.56,0,0,1,9,2.74L35.33,42.4,61.69,2.74A4.49,4.49,0,0,1,65.6.53h1a4.19,4.19,0,0,1,4.11,4.11V71a4.2,4.2,0,0,1-4.11,4.21A4.3,4.3,0,0,1,62.33,71V15.92L38.7,50.62a4.07,4.07,0,0,1-3.48,2.11,4.25,4.25,0,0,1-3.58-2.11L8.12,16V71.08A4,4,0,0,1,4,75.19a4,4,0,0,1-4-4.11Z"/><path class="cls-1" d="M113.37,4.53a4.17,4.17,0,1,1,8.34,0V71a4.17,4.17,0,1,1-8.34,0Z"/><path class="cls-1" d="M164.42,4.64A4.19,4.19,0,0,1,168.53.53h1.16c1.9,0,3.06,1,4.22,2.42l44.82,57.16V4.43a4.06,4.06,0,1,1,8.12,0V71.08a3.74,3.74,0,0,1-3.8,3.9h-.42c-1.79,0-3.06-1-4.32-2.53L172.54,13.92V71.08a4.06,4.06,0,1,1-8.12,0Z"/><path class="cls-1" d="M269.56,4.53a4.17,4.17,0,1,1,8.34,0V71a4.17,4.17,0,1,1-8.34,0Z"/><path class="cls-1" d="M320.61,4.64A4.19,4.19,0,0,1,324.72.53h.95a4.57,4.57,0,0,1,3.9,2.21L355.94,42.4,382.3,2.74A4.48,4.48,0,0,1,386.2.53h.95a4.19,4.19,0,0,1,4.12,4.11V71a4.21,4.21,0,0,1-4.12,4.21A4.3,4.3,0,0,1,382.93,71V15.92l-23.62,34.7a4.08,4.08,0,0,1-3.48,2.11,4.22,4.22,0,0,1-3.58-2.11L328.73,16V71.08a4.06,4.06,0,1,1-8.12,0Z"/><path class="cls-1" d="M428.71,69.18l30-65.49c1-2.32,2.64-3.69,5.27-3.69h.42a5.32,5.32,0,0,1,5.17,3.69l30,65.39a5.55,5.55,0,0,1,.53,2.11,4,4,0,0,1-4,4,4.55,4.55,0,0,1-4.11-3l-7.7-17h-40.5L436,72.35a4.15,4.15,0,0,1-4,2.84,3.78,3.78,0,0,1-3.8-3.79A4.85,4.85,0,0,1,428.71,69.18Zm52.2-21.62-17-37.75L447,47.56Z"/></svg>