<svg id="Layer_1" data-name="Layer 1" xmlns="http://www.w3.org/2000/svg" viewBox="0 0 400 60.16"><defs><style>.cls-1{fill:#16181c;}</style></defs><path class="cls-1" d="M0,3.71A3.35,3.35,0,0,1,3.29.42h.76A3.65,3.65,0,0,1,7.17,2.19L28.26,33.92,49.36,2.19A3.58,3.58,0,0,1,52.48.42h.76a3.35,3.35,0,0,1,3.29,3.29V56.78a3.37,3.37,0,0,1-3.29,3.38,3.45,3.45,0,0,1-3.38-3.38v-44L31,40.5a3.27,3.27,0,0,1-2.78,1.68,3.41,3.41,0,0,1-2.87-1.68L6.5,12.82V56.87a3.25,3.25,0,1,1-6.5,0Z"/><path class="cls-1" d="M90.7,3.63a3.33,3.33,0,1,1,6.66,0V56.78a3.33,3.33,0,1,1-6.66,0Z"/><path class="cls-1" d="M131.53,3.71A3.35,3.35,0,0,1,134.82.42h.93a4.09,4.09,0,0,1,3.38,1.94L175,48.09V3.54a3.25,3.25,0,1,1,6.5,0V56.87a3,3,0,0,1-3,3.12h-.33c-1.44,0-2.45-.85-3.46-2L138,11.14V56.87a3.25,3.25,0,1,1-6.5,0Z"/><path class="cls-1" d="M215.65,3.63a3.34,3.34,0,1,1,6.67,0V56.78a3.34,3.34,0,1,1-6.67,0Z"/><path class="cls-1" d="M256.49,3.71A3.35,3.35,0,0,1,259.78.42h.76a3.67,3.67,0,0,1,3.12,1.77l21.09,31.73L305.84,2.19A3.59,3.59,0,0,1,309,.42h.76A3.35,3.35,0,0,1,313,3.71V56.78a3.37,3.37,0,0,1-3.29,3.38,3.45,3.45,0,0,1-3.37-3.38v-44L287.45,40.5a3.27,3.27,0,0,1-2.79,1.68,3.39,3.39,0,0,1-2.86-1.68L263,12.82V56.87a3.25,3.25,0,1,1-6.49,0Z"/><path class="cls-1" d="M343,55.35l24-52.4A4.36,4.36,0,0,1,371.15,0h.33a4.26,4.26,0,0,1,4.14,3l24,52.31A4.55,4.55,0,0,1,400,57a3.21,3.21,0,0,1-3.21,3.21,3.64,3.64,0,0,1-3.29-2.45l-6.16-13.58H355l-6.16,13.75a3.35,3.35,0,0,1-3.21,2.28,3,3,0,0,1-3-3A3.8,3.8,0,0,1,343,55.35Zm41.76-17.3L371.15,7.85l-13.59,30.2Z"/></svg>