<svg id="Layer_1" data-name="Layer 1" xmlns="http://www.w3.org/2000/svg" viewBox="0 0 50 7.52"><defs><style>.cls-1{fill:#16181c;}</style></defs><path class="cls-1" d="M0,.47A.42.42,0,0,1,.41.06h.1A.45.45,0,0,1,.9.28l2.63,4,2.64-4A.43.43,0,0,1,6.56.06h.09a.42.42,0,0,1,.42.41V7.1a.42.42,0,0,1-.42.42.43.43,0,0,1-.42-.42V1.6L3.87,5.07a.42.42,0,0,1-.35.21.45.45,0,0,1-.36-.21L.81,1.61v5.5a.4.4,0,0,1-.41.41A.4.4,0,0,1,0,7.11Z"/><path class="cls-1" d="M11.34.46a.42.42,0,1,1,.83,0V7.1a.42.42,0,1,1-.83,0Z"/><path class="cls-1" d="M16.44.47a.42.42,0,0,1,.41-.41H17a.5.5,0,0,1,.42.24L21.87,6V.45a.41.41,0,1,1,.82,0V7.11a.38.38,0,0,1-.38.39h0a.56.56,0,0,1-.43-.25L17.25,1.4V7.11a.41.41,0,1,1-.81,0Z"/><path class="cls-1" d="M27,.46a.42.42,0,1,1,.83,0V7.1a.42.42,0,1,1-.83,0Z"/><path class="cls-1" d="M32.06.47a.42.42,0,0,1,.41-.41h.1A.45.45,0,0,1,33,.28l2.63,4,2.64-4a.43.43,0,0,1,.39-.22h.1a.42.42,0,0,1,.41.41V7.1a.42.42,0,0,1-.41.42.43.43,0,0,1-.43-.42V1.6L35.93,5.07a.42.42,0,0,1-.35.21.46.46,0,0,1-.36-.21L32.87,1.61v5.5a.41.41,0,1,1-.81,0Z"/><path class="cls-1" d="M42.87,6.92l3-6.55A.54.54,0,0,1,46.39,0h0A.52.52,0,0,1,47,.37l3,6.54a.63.63,0,0,1,0,.21.39.39,0,0,1-.4.4.44.44,0,0,1-.41-.3l-.77-1.7H44.37L43.6,7.24a.42.42,0,0,1-.4.28.37.37,0,0,1-.38-.38A.52.52,0,0,1,42.87,6.92Zm5.22-2.16L46.39,1,44.7,4.76Z"/></svg>