<svg id="Layer_1" data-name="Layer 1" xmlns="http://www.w3.org/2000/svg" viewBox="0 0 300 45.13"><defs><style>.cls-1{fill:#16181c;}</style></defs><path class="cls-1" d="M0,2.8A2.52,2.52,0,0,1,2.47.33H3A2.75,2.75,0,0,1,5.38,1.66L21.2,25.45,37,1.66A2.68,2.68,0,0,1,39.36.33h.57A2.52,2.52,0,0,1,42.4,2.8V42.6a2.53,2.53,0,0,1-2.47,2.53A2.58,2.58,0,0,1,37.4,42.6v-33L23.22,30.39a2.46,2.46,0,0,1-2.09,1.27A2.56,2.56,0,0,1,19,30.39L4.87,9.64v33A2.42,2.42,0,0,1,2.4,45.13,2.41,2.41,0,0,1,0,42.67Z"/><path class="cls-1" d="M68,2.74a2.5,2.5,0,1,1,5,0V42.6a2.5,2.5,0,1,1-5,0Z"/><path class="cls-1" d="M98.65,2.8A2.52,2.52,0,0,1,101.12.33h.69a3.07,3.07,0,0,1,2.54,1.46l26.89,34.3V2.67a2.44,2.44,0,1,1,4.87,0v40A2.25,2.25,0,0,1,133.83,45h-.25a3.45,3.45,0,0,1-2.6-1.52L103.52,8.37v34.3a2.44,2.44,0,1,1-4.87,0Z"/><path class="cls-1" d="M161.74,2.74a2.5,2.5,0,1,1,5,0V42.6a2.5,2.5,0,1,1-5,0Z"/><path class="cls-1" d="M192.36,2.8A2.52,2.52,0,0,1,194.83.33h.57a2.72,2.72,0,0,1,2.34,1.33l15.82,23.79L229.38,1.66A2.7,2.7,0,0,1,231.72.33h.57a2.52,2.52,0,0,1,2.47,2.47V42.6a2.53,2.53,0,0,1-2.47,2.53,2.58,2.58,0,0,1-2.53-2.53v-33L215.59,30.39a2.47,2.47,0,0,1-2.09,1.27,2.55,2.55,0,0,1-2.15-1.27L197.24,9.64v33a2.44,2.44,0,1,1-4.88,0Z"/><path class="cls-1" d="M257.22,41.53l18-39.3A3.26,3.26,0,0,1,278.36,0h.25a3.19,3.19,0,0,1,3.1,2.21l18,39.23a3.44,3.44,0,0,1,.32,1.27,2.4,2.4,0,0,1-2.4,2.4,2.72,2.72,0,0,1-2.47-1.83l-4.62-10.19h-24.3l-4.62,10.32a2.5,2.5,0,0,1-2.4,1.7,2.26,2.26,0,0,1-2.28-2.27A2.89,2.89,0,0,1,257.22,41.53Zm31.33-13L278.36,5.9,268.17,28.56Z"/></svg>