<svg id="Layer_1" data-name="Layer 1" xmlns="http://www.w3.org/2000/svg" viewBox="0 0 1000 1000"><defs><style>.cls-1{fill:#16181c;}.cls-2{fill:#ff512f;}.cls-3{fill:#317aff;}.cls-4{fill:#91919d;}</style></defs><path class="cls-1" d="M0,858.89a8.37,8.37,0,0,1,8.23-8.22h1.89a9.12,9.12,0,0,1,7.81,4.43l52.73,79.3,52.73-79.3a8.93,8.93,0,0,1,7.8-4.43h1.9a8.37,8.37,0,0,1,8.23,8.22V991.56a8.43,8.43,0,0,1-8.23,8.44,8.6,8.6,0,0,1-8.43-8.44V881.46L77.41,950.85c-1.9,2.75-4,4.22-7,4.22s-5.27-1.47-7.17-4.22l-47-69.18v110.1a8.12,8.12,0,1,1-16.24,0Z"/><path class="cls-1" d="M226.75,858.68a8.33,8.33,0,1,1,16.66,0V991.56a8.33,8.33,0,1,1-16.66,0Z"/><path class="cls-1" d="M328.83,858.89a8.37,8.37,0,0,1,8.23-8.22h2.32c3.8,0,6.12,1.89,8.44,4.85l89.64,114.32V858.47a8.12,8.12,0,1,1,16.24,0v133.3a7.49,7.49,0,0,1-7.59,7.81h-.85c-3.58,0-6.11-2.11-8.64-5.06L345.07,877.45V991.77a8.12,8.12,0,1,1-16.24,0Z"/><path class="cls-1" d="M539.13,858.68a8.33,8.33,0,1,1,16.66,0V991.56a8.33,8.33,0,1,1-16.66,0Z"/><path class="cls-1" d="M641.21,858.89a8.37,8.37,0,0,1,8.23-8.22h1.9a9.1,9.1,0,0,1,7.8,4.43l52.73,79.3,52.73-79.3a8.94,8.94,0,0,1,7.81-4.43h1.9a8.36,8.36,0,0,1,8.22,8.22V991.56a8.42,8.42,0,0,1-8.22,8.44,8.61,8.61,0,0,1-8.44-8.44V881.46l-47.25,69.39c-1.9,2.75-4,4.22-7,4.22s-5.27-1.47-7.17-4.22l-47-69.18v110.1a8.13,8.13,0,1,1-16.25,0Z"/><path class="cls-1" d="M857.42,988l59.9-131c2.11-4.64,5.27-7.38,10.54-7.38h.85c5.06,0,8.43,2.74,10.33,7.38L999,987.77a11.26,11.26,0,0,1,1,4.22,8,8,0,0,1-8,8c-4,0-6.74-2.74-8.22-6.12l-15.4-34h-81L872,994.31c-1.48,3.58-4.22,5.69-8,5.69a7.56,7.56,0,0,1-7.59-7.59A9.51,9.51,0,0,1,857.42,988Zm104.4-43.24-34-75.51-34,75.51Z"/><polygon class="cls-1" points="656.35 156.09 574.58 517.59 618.45 701.11 700.23 339.62 656.35 156.09"/><polygon class="cls-1" points="424 62.25 328.15 485.99 364.88 701.11 460.73 277.37 424 62.25"/><polygon class="cls-2" points="269.89 0 111.3 701.11 279.49 701.11 328.15 485.99 424 62.25 269.89 0"/><polygon class="cls-3" points="502.24 93.85 460.73 277.37 364.88 701.11 533.07 701.11 574.58 517.59 656.35 156.09 502.24 93.85"/><polygon class="cls-4" points="734.59 187.7 700.23 339.62 618.45 701.11 786.65 701.11 888.7 249.94 734.59 187.7"/></svg>