<svg id="Layer_1" data-name="Layer 1" xmlns="http://www.w3.org/2000/svg" viewBox="0 0 300 300"><defs><style>.cls-1{fill:#16181c;}.cls-2{fill:#ff512f;}.cls-3{fill:#317aff;}.cls-4{fill:#91919d;}</style></defs><path class="cls-1" d="M0,257.67a2.52,2.52,0,0,1,2.47-2.47H3a2.75,2.75,0,0,1,2.34,1.33L21.2,280.32,37,256.53a2.68,2.68,0,0,1,2.34-1.33h.57a2.52,2.52,0,0,1,2.47,2.47v39.8A2.53,2.53,0,0,1,39.93,300a2.58,2.58,0,0,1-2.53-2.53v-33L23.22,285.26a2.45,2.45,0,0,1-2.09,1.26A2.55,2.55,0,0,1,19,285.26L4.87,264.5v33a2.44,2.44,0,1,1-4.87,0Z"/><path class="cls-1" d="M68,257.6a2.5,2.5,0,1,1,5,0v39.87a2.5,2.5,0,1,1-5,0Z"/><path class="cls-1" d="M98.65,257.67a2.52,2.52,0,0,1,2.47-2.47h.69a3.07,3.07,0,0,1,2.54,1.46L131.24,291V257.54a2.44,2.44,0,1,1,4.87,0v40a2.24,2.24,0,0,1-2.28,2.34h-.25a3.42,3.42,0,0,1-2.6-1.52l-27.46-35.11v34.29a2.44,2.44,0,1,1-4.87,0Z"/><path class="cls-1" d="M161.74,257.6a2.5,2.5,0,1,1,5,0v39.87a2.5,2.5,0,1,1-5,0Z"/><path class="cls-1" d="M192.36,257.67a2.52,2.52,0,0,1,2.47-2.47h.57a2.72,2.72,0,0,1,2.34,1.33l15.82,23.79,15.82-23.79a2.7,2.7,0,0,1,2.34-1.33h.57a2.52,2.52,0,0,1,2.47,2.47v39.8a2.53,2.53,0,0,1-2.47,2.53,2.58,2.58,0,0,1-2.53-2.53v-33l-14.17,20.82a2.46,2.46,0,0,1-2.09,1.26,2.54,2.54,0,0,1-2.15-1.26L197.24,264.5v33a2.44,2.44,0,1,1-4.88,0Z"/><path class="cls-1" d="M257.22,296.39l18-39.29a3.27,3.27,0,0,1,3.16-2.22h.25a3.19,3.19,0,0,1,3.1,2.22l18,39.23a3.39,3.39,0,0,1,.32,1.27,2.41,2.41,0,0,1-2.4,2.4,2.72,2.72,0,0,1-2.47-1.83L290.51,288h-24.3l-4.62,10.31a2.49,2.49,0,0,1-2.4,1.71,2.27,2.27,0,0,1-2.28-2.28A2.92,2.92,0,0,1,257.22,296.39Zm31.33-13-10.19-22.65-10.19,22.65Z"/><polygon class="cls-1" points="196.91 46.83 172.37 155.28 185.54 210.33 210.07 101.89 196.91 46.83"/><polygon class="cls-1" points="127.2 18.67 98.44 145.8 109.46 210.33 138.22 83.21 127.2 18.67"/><polygon class="cls-2" points="80.97 0 33.39 210.33 83.85 210.33 98.44 145.8 127.2 18.67 80.97 0"/><polygon class="cls-3" points="150.67 28.15 138.22 83.21 109.46 210.33 159.92 210.33 172.37 155.28 196.91 46.83 150.67 28.15"/><polygon class="cls-4" points="220.38 56.31 210.07 101.89 185.54 210.33 235.99 210.33 266.61 74.98 220.38 56.31"/></svg>