<svg id="Layer_1" data-name="Layer 1" xmlns="http://www.w3.org/2000/svg" viewBox="0 0 100 100"><defs><style>.cls-1{fill:#16181c;}.cls-2{fill:#ff512f;}.cls-3{fill:#317aff;}.cls-4{fill:#91919d;}</style></defs><path class="cls-1" d="M0,85.89a.84.84,0,0,1,.82-.82H1a.92.92,0,0,1,.78.44l5.28,7.93,5.27-7.93a.9.9,0,0,1,.78-.44h.19a.84.84,0,0,1,.82.82V99.16a.84.84,0,0,1-.82.84.86.86,0,0,1-.84-.84v-11L7.74,95.09a.82.82,0,0,1-.7.42.85.85,0,0,1-.71-.42L1.62,88.17v11A.8.8,0,0,1,.8,100a.81.81,0,0,1-.8-.82Z"/><path class="cls-1" d="M22.67,85.87a.84.84,0,1,1,1.67,0V99.16a.84.84,0,1,1-1.67,0Z"/><path class="cls-1" d="M32.88,85.89a.84.84,0,0,1,.83-.82h.23a1,1,0,0,1,.84.48l9,11.43V85.85a.81.81,0,1,1,1.62,0V99.18a.75.75,0,0,1-.76.78h-.08a1.14,1.14,0,0,1-.87-.51l-9.15-11.7V99.18a.82.82,0,1,1-1.63,0Z"/><path class="cls-1" d="M53.91,85.87a.84.84,0,1,1,1.67,0V99.16a.84.84,0,1,1-1.67,0Z"/><path class="cls-1" d="M64.12,85.89a.84.84,0,0,1,.82-.82h.19a.9.9,0,0,1,.78.44l5.28,7.93,5.27-7.93a.9.9,0,0,1,.78-.44h.19a.84.84,0,0,1,.82.82V99.16a.84.84,0,0,1-.82.84.86.86,0,0,1-.84-.84v-11l-4.73,6.94a.82.82,0,0,1-.69.42.86.86,0,0,1-.72-.42l-4.7-6.92v11a.82.82,0,1,1-1.63,0Z"/><path class="cls-1" d="M85.74,98.8l6-13.1A1.1,1.1,0,0,1,92.79,85h.08a1.06,1.06,0,0,1,1,.74l6,13.08a1,1,0,0,1,.11.42.8.8,0,0,1-.8.8.89.89,0,0,1-.82-.61L96.84,96h-8.1L87.2,99.43a.83.83,0,0,1-.8.57.75.75,0,0,1-.76-.76A1,1,0,0,1,85.74,98.8Zm10.44-4.33-3.39-7.55-3.4,7.55Z"/><polygon class="cls-1" points="65.64 15.61 57.46 51.76 61.84 70.11 70.02 33.96 65.64 15.61"/><polygon class="cls-1" points="42.4 6.22 32.81 48.6 36.49 70.11 46.07 27.74 42.4 6.22"/><polygon class="cls-2" points="26.99 0 11.13 70.11 27.95 70.11 32.81 48.6 42.4 6.22 26.99 0"/><polygon class="cls-3" points="50.22 9.38 46.07 27.74 36.49 70.11 53.31 70.11 57.46 51.76 65.64 15.61 50.22 9.38"/><polygon class="cls-4" points="73.46 18.77 70.02 33.96 61.84 70.11 78.67 70.11 88.87 24.99 73.46 18.77"/></svg>