<svg id="Layer_1" data-name="Layer 1" xmlns="http://www.w3.org/2000/svg" viewBox="0 0 900.17 900"><defs><style>.cls-1{fill:#16181c;}.cls-2{fill:#ff512f;}.cls-3{fill:#317aff;}.cls-4{fill:#91919d;}</style></defs><path class="cls-1" d="M0,773a7.54,7.54,0,0,1,7.4-7.4H9.11a8.23,8.23,0,0,1,7,4L63.59,841l47.46-71.37a8.05,8.05,0,0,1,7-4h1.71a7.54,7.54,0,0,1,7.41,7.4V892.41a7.58,7.58,0,0,1-7.41,7.59,7.74,7.74,0,0,1-7.59-7.59V793.32L69.67,855.77c-1.71,2.47-3.61,3.8-6.27,3.8s-4.74-1.33-6.45-3.8L14.62,793.5v99.1A7.31,7.31,0,1,1,0,892.6Z"/><path class="cls-1" d="M204.07,772.81a7.5,7.5,0,1,1,15,0v119.6a7.5,7.5,0,1,1-15,0Z"/><path class="cls-1" d="M296,773a7.54,7.54,0,0,1,7.4-7.4h2.09c3.42,0,5.51,1.71,7.6,4.37l80.67,102.88V772.62a7.31,7.31,0,1,1,14.62,0v120a6.74,6.74,0,0,1-6.83,7h-.76c-3.23,0-5.51-1.9-7.79-4.56L310.57,789.71V892.6a7.31,7.31,0,1,1-14.62,0Z"/><path class="cls-1" d="M485.22,772.81a7.5,7.5,0,1,1,15,0v119.6a7.5,7.5,0,1,1-15,0Z"/><path class="cls-1" d="M577.09,773a7.54,7.54,0,0,1,7.41-7.4h1.7a8.23,8.23,0,0,1,7,4L640.69,841l47.45-71.37a8.06,8.06,0,0,1,7-4h1.71a7.54,7.54,0,0,1,7.4,7.4V892.41a7.58,7.58,0,0,1-7.4,7.59,7.75,7.75,0,0,1-7.6-7.59V793.32l-42.52,62.45c-1.71,2.47-3.61,3.8-6.26,3.8s-4.75-1.33-6.46-3.8L591.71,793.5v99.1a7.31,7.31,0,1,1-14.62,0Z"/><path class="cls-1" d="M771.67,889.18l53.92-117.89c1.89-4.17,4.74-6.64,9.49-6.64h.76c4.55,0,7.59,2.47,9.3,6.64L899.05,889a10.15,10.15,0,0,1,1,3.8,7.21,7.21,0,0,1-7.21,7.21c-3.61,0-6.08-2.47-7.41-5.5l-13.85-30.57h-72.9l-13.86,30.94c-1.33,3.23-3.79,5.13-7.21,5.13a6.81,6.81,0,0,1-6.84-6.83A8.65,8.65,0,0,1,771.67,889.18Zm94-38.92-30.56-68-30.57,68Z"/><polygon class="cls-1" points="590.72 140.49 517.12 465.83 556.61 631 630.2 305.65 590.72 140.49"/><polygon class="cls-1" points="381.6 56.02 295.33 437.39 328.39 631 414.65 249.63 381.6 56.02"/><polygon class="cls-2" points="242.9 0 100.17 631 251.54 631 295.33 437.39 381.6 56.02 242.9 0"/><polygon class="cls-3" points="452.02 84.46 414.65 249.63 328.39 631 479.76 631 517.12 465.83 590.72 140.49 452.02 84.46"/><polygon class="cls-4" points="661.13 168.93 630.2 305.65 556.61 631 707.98 631 799.83 224.95 661.13 168.93"/></svg>