<svg id="Layer_1" data-name="Layer 1" xmlns="http://www.w3.org/2000/svg" viewBox="0 0 900 192.95"><defs><style>.cls-1{fill:#fff;}.cls-2{fill:#ff512f;}.cls-3{fill:#317aff;}.cls-4{fill:#91919d;}</style></defs><polygon class="cls-1" points="150 42.96 127.5 142.45 139.58 192.96 162.08 93.47 150 42.96"/><polygon class="cls-1" points="86.06 17.13 59.68 133.75 69.79 192.96 96.17 76.33 86.06 17.13"/><polygon class="cls-2" points="43.65 0 0 192.96 46.29 192.96 59.68 133.75 86.06 17.13 43.65 0"/><polygon class="cls-3" points="107.59 25.83 96.17 76.33 69.79 192.96 116.08 192.96 127.5 142.45 150 42.96 107.59 25.83"/><polygon class="cls-4" points="171.54 51.66 162.08 93.47 139.58 192.96 185.86 192.96 213.95 68.79 171.54 51.66"/><path class="cls-1" d="M288,106.82a5.13,5.13,0,0,1,5-5h1.16a5.58,5.58,0,0,1,4.77,2.71l32.27,48.4,32.27-48.4a5.49,5.49,0,0,1,4.78-2.71h1.16a5.13,5.13,0,0,1,5,5v81a5.15,5.15,0,0,1-5,5.15,5.25,5.25,0,0,1-5.16-5.15V120.6L335.4,163c-1.17,1.67-2.46,2.57-4.26,2.57a5.2,5.2,0,0,1-4.39-2.57L298,120.73v67.2a5,5,0,1,1-9.94,0Z"/><path class="cls-1" d="M426.79,106.69a5.1,5.1,0,1,1,10.19,0V187.8a5.1,5.1,0,1,1-10.19,0Z"/><path class="cls-1" d="M489.26,106.82a5.13,5.13,0,0,1,5-5h1.42c2.32,0,3.74,1.16,5.16,3l54.86,69.78v-68a5,5,0,1,1,9.94,0v81.36A4.58,4.58,0,0,1,561,192.7h-.52c-2.19,0-3.74-1.29-5.29-3.09l-56-71.46v69.78a5,5,0,1,1-9.94,0Z"/><path class="cls-1" d="M618,106.69a5.1,5.1,0,1,1,10.19,0V187.8a5.1,5.1,0,1,1-10.19,0Z"/><path class="cls-1" d="M680.43,106.82a5.12,5.12,0,0,1,5-5h1.16a5.58,5.58,0,0,1,4.77,2.71l32.27,48.4,32.27-48.4a5.48,5.48,0,0,1,4.78-2.71h1.16a5.12,5.12,0,0,1,5,5v81a5.14,5.14,0,0,1-5,5.15,5.25,5.25,0,0,1-5.16-5.15V120.6L727.8,163c-1.16,1.67-2.45,2.57-4.26,2.57a5.2,5.2,0,0,1-4.38-2.57l-28.79-42.23v67.2a5,5,0,1,1-9.94,0Z"/><path class="cls-1" d="M812.74,185.62l36.66-80c1.29-2.83,3.23-4.5,6.45-4.5h.52c3.1,0,5.16,1.67,6.33,4.5l36.65,79.83a6.8,6.8,0,0,1,.65,2.57,4.89,4.89,0,0,1-4.91,4.89c-2.45,0-4.13-1.67-5-3.73l-9.42-20.73H831.07l-9.42,21a5.11,5.11,0,0,1-4.91,3.47,4.62,4.62,0,0,1-4.64-4.63A5.91,5.91,0,0,1,812.74,185.62Zm63.9-26.4-20.79-46.09-20.78,46.09Z"/></svg>