<svg id="Layer_1" data-name="Layer 1" xmlns="http://www.w3.org/2000/svg" viewBox="0 0 600 128.64"><defs><style>.cls-1{fill:#fff;}.cls-2{fill:#ff512f;}.cls-3{fill:#317aff;}.cls-4{fill:#91919d;}</style></defs><polygon class="cls-1" points="100 28.64 85 94.97 93.05 128.64 108.05 62.31 100 28.64"/><polygon class="cls-1" points="57.37 11.42 39.79 89.17 46.52 128.64 64.11 50.89 57.37 11.42"/><polygon class="cls-2" points="29.1 0 0 128.64 30.86 128.64 39.79 89.17 57.37 11.42 29.1 0"/><polygon class="cls-3" points="71.73 17.22 64.11 50.89 46.52 128.64 77.38 128.64 85 94.97 100 28.64 71.73 17.22"/><polygon class="cls-4" points="114.36 34.44 108.05 62.31 93.05 128.64 123.91 128.64 142.63 45.86 114.36 34.44"/><path class="cls-1" d="M192,71.22a3.4,3.4,0,0,1,3.35-3.35h.78a3.72,3.72,0,0,1,3.18,1.8l21.51,32.27,21.52-32.27a3.63,3.63,0,0,1,3.18-1.8h.78a3.41,3.41,0,0,1,3.35,3.35v54a3.44,3.44,0,0,1-3.35,3.44,3.51,3.51,0,0,1-3.45-3.44V80.4L223.6,108.64a3.35,3.35,0,0,1-2.84,1.71,3.48,3.48,0,0,1-2.93-1.71L198.64,80.49v44.8a3.31,3.31,0,1,1-6.62,0Z"/><path class="cls-1" d="M284.52,71.13a3.4,3.4,0,1,1,6.8,0V125.2a3.4,3.4,0,1,1-6.8,0Z"/><path class="cls-1" d="M326.17,71.22a3.41,3.41,0,0,1,3.36-3.35h1a4.16,4.16,0,0,1,3.44,2l36.57,46.52V71a3.32,3.32,0,1,1,6.63,0v54.25a3,3,0,0,1-3.1,3.17h-.34c-1.47,0-2.5-.85-3.53-2.06L332.8,78.77v46.52a3.32,3.32,0,1,1-6.63,0Z"/><path class="cls-1" d="M412,71.13a3.4,3.4,0,1,1,6.8,0V125.2a3.4,3.4,0,1,1-6.8,0Z"/><path class="cls-1" d="M453.62,71.22A3.41,3.41,0,0,1,457,67.87h.77a3.74,3.74,0,0,1,3.19,1.8l21.51,32.27L504,69.67a3.65,3.65,0,0,1,3.19-1.8h.77a3.41,3.41,0,0,1,3.36,3.35v54a3.44,3.44,0,0,1-3.36,3.44,3.51,3.51,0,0,1-3.44-3.44V80.4L485.2,108.64a3.33,3.33,0,0,1-2.84,1.71,3.46,3.46,0,0,1-2.92-1.71L460.25,80.49v44.8a3.32,3.32,0,1,1-6.63,0Z"/><path class="cls-1" d="M541.83,123.74l24.44-53.3a4.43,4.43,0,0,1,4.3-3h.34a4.33,4.33,0,0,1,4.22,3l24.44,53.22a4.53,4.53,0,0,1,.43,1.71,3.26,3.26,0,0,1-3.27,3.27,3.72,3.72,0,0,1-3.36-2.49l-6.28-13.82h-33l-6.28,14a3.42,3.42,0,0,1-3.27,2.32,3.08,3.08,0,0,1-3.1-3.09A3.85,3.85,0,0,1,541.83,123.74Zm42.59-17.59L570.57,75.42l-13.85,30.73Z"/></svg>