<svg id="Layer_1" data-name="Layer 1" xmlns="http://www.w3.org/2000/svg" viewBox="0 0 120 25.73"><defs><style>.cls-1{fill:#fff;}.cls-2{fill:#ff512f;}.cls-3{fill:#317aff;}.cls-4{fill:#91919d;}</style></defs><polygon class="cls-1" points="20 5.73 17 18.99 18.61 25.73 21.61 12.46 20 5.73"/><polygon class="cls-1" points="11.47 2.28 7.96 17.83 9.3 25.73 12.82 10.18 11.47 2.28"/><polygon class="cls-2" points="5.82 0 0 25.73 6.17 25.73 7.96 17.83 11.47 2.28 5.82 0"/><polygon class="cls-3" points="14.35 3.44 12.82 10.18 9.3 25.73 15.48 25.73 17 18.99 20 5.73 14.35 3.44"/><polygon class="cls-4" points="22.87 6.89 21.61 12.46 18.61 25.73 24.78 25.73 28.53 9.17 22.87 6.89"/><path class="cls-1" d="M38.4,14.24a.68.68,0,0,1,.67-.67h.16a.77.77,0,0,1,.64.36l4.3,6.46,4.3-6.46a.74.74,0,0,1,.64-.36h.15a.68.68,0,0,1,.67.67V25a.69.69,0,0,1-.67.69.7.7,0,0,1-.69-.69v-9l-3.85,5.65a.66.66,0,0,1-1.15,0L39.73,16.1v9a.67.67,0,1,1-1.33,0Z"/><path class="cls-1" d="M56.9,14.23a.68.68,0,1,1,1.36,0V25a.68.68,0,1,1-1.36,0Z"/><path class="cls-1" d="M65.23,14.24a.69.69,0,0,1,.68-.67h.19a.82.82,0,0,1,.68.4l7.32,9.3V14.21a.66.66,0,1,1,1.32,0V25.06a.6.6,0,0,1-.62.63h-.06a.93.93,0,0,1-.71-.41l-7.47-9.53v9.31a.67.67,0,1,1-1.33,0Z"/><path class="cls-1" d="M82.39,14.23a.68.68,0,1,1,1.36,0V25a.68.68,0,1,1-1.36,0Z"/><path class="cls-1" d="M90.72,14.24a.69.69,0,0,1,.68-.67h.15a.77.77,0,0,1,.64.36l4.3,6.46,4.3-6.46a.74.74,0,0,1,.64-.36h.15a.69.69,0,0,1,.68.67V25a.69.69,0,0,1-.68.69.7.7,0,0,1-.68-.69v-9L97,21.73a.67.67,0,0,1-.57.34.68.68,0,0,1-.58-.34L92.05,16.1v9a.67.67,0,1,1-1.33,0Z"/><path class="cls-1" d="M108.37,24.75l4.88-10.66a.89.89,0,0,1,.86-.6h.07a.87.87,0,0,1,.85.6l4.88,10.64a.79.79,0,0,1,.09.34.65.65,0,0,1-.65.66.77.77,0,0,1-.68-.5l-1.25-2.76h-6.61l-1.26,2.79a.67.67,0,0,1-.65.47.62.62,0,0,1-.62-.62A.79.79,0,0,1,108.37,24.75Zm8.51-3.52-2.77-6.15-2.77,6.15Z"/></svg>