<svg id="Layer_1" data-name="Layer 1" xmlns="http://www.w3.org/2000/svg" viewBox="0 0 1000 214.39"><defs><style>.cls-1{fill:#fff;}.cls-2{fill:#ff512f;}.cls-3{fill:#317aff;}.cls-4{fill:#91919d;}</style></defs><polygon class="cls-1" points="166.67 47.73 141.67 158.28 155.08 214.39 180.09 103.85 166.67 47.73"/><polygon class="cls-1" points="95.62 19.04 66.31 148.61 77.54 214.39 106.85 84.82 95.62 19.04"/><polygon class="cls-2" points="48.5 0 0 214.39 51.43 214.39 66.31 148.61 95.62 19.04 48.5 0"/><polygon class="cls-3" points="119.55 28.7 106.85 84.82 77.54 214.39 128.97 214.39 141.67 158.28 166.67 47.73 119.55 28.7"/><polygon class="cls-4" points="190.6 57.4 180.09 103.85 155.08 214.39 206.52 214.39 237.72 76.43 190.6 57.4"/><path class="cls-1" d="M320,118.69a5.69,5.69,0,0,1,5.59-5.58h1.29a6.22,6.22,0,0,1,5.31,3l35.85,53.79,35.86-53.79a6.09,6.09,0,0,1,5.3-3h1.3a5.69,5.69,0,0,1,5.59,5.58v90a5.71,5.71,0,0,1-5.59,5.72,5.83,5.83,0,0,1-5.74-5.72V134l-32.13,47.06c-1.29,1.86-2.72,2.86-4.73,2.86a5.78,5.78,0,0,1-4.88-2.86l-32-46.92v74.68a5.52,5.52,0,1,1-11,0Z"/><path class="cls-1" d="M474.21,118.55a5.67,5.67,0,1,1,11.33,0v90.12a5.67,5.67,0,1,1-11.33,0Z"/><path class="cls-1" d="M543.62,118.69a5.7,5.7,0,0,1,5.6-5.58h1.58c2.58,0,4.15,1.29,5.73,3.29l61,77.54V118.41a5.52,5.52,0,1,1,11,0v90.41a5.08,5.08,0,0,1-5.16,5.29h-.58c-2.43,0-4.16-1.43-5.88-3.44l-62.24-79.39v77.54a5.53,5.53,0,1,1-11,0Z"/><path class="cls-1" d="M686.62,118.55a5.67,5.67,0,1,1,11.33,0v90.12a5.67,5.67,0,1,1-11.33,0Z"/><path class="cls-1" d="M756,118.69a5.7,5.7,0,0,1,5.6-5.58h1.29a6.22,6.22,0,0,1,5.31,3l35.85,53.79,35.86-53.79a6.08,6.08,0,0,1,5.3-3h1.29a5.69,5.69,0,0,1,5.6,5.58v90a5.71,5.71,0,0,1-5.6,5.72,5.83,5.83,0,0,1-5.73-5.72V134l-32.13,47.06c-1.29,1.86-2.72,2.86-4.73,2.86a5.78,5.78,0,0,1-4.88-2.86l-32-46.92v74.68a5.53,5.53,0,1,1-11.05,0Z"/><path class="cls-1" d="M903.05,206.24l40.73-88.83c1.43-3.15,3.58-5,7.17-5h.57c3.45,0,5.74,1.86,7,5l40.73,88.69A7.62,7.62,0,0,1,1000,209a5.44,5.44,0,0,1-5.45,5.43c-2.73,0-4.59-1.86-5.59-4.14l-10.47-23H923.41l-10.47,23.32a5.68,5.68,0,0,1-5.45,3.86,5.13,5.13,0,0,1-5.16-5.15A6.42,6.42,0,0,1,903.05,206.24Zm71-29.33L951,125.7l-23.09,51.21Z"/></svg>