<svg id="Layer_1" data-name="Layer 1" xmlns="http://www.w3.org/2000/svg" viewBox="0 0 800 800"><defs><style>.cls-1{fill:#16181c;}.cls-2{fill:#a7a7b0;}.cls-3{fill:#91919d;}.cls-4{fill:#bdbdc4;}</style></defs><path class="cls-1" d="M0,687.11a6.7,6.7,0,0,1,6.58-6.58H8.1a7.29,7.29,0,0,1,6.24,3.55l42.19,63.44,42.18-63.44a7.16,7.16,0,0,1,6.25-3.55h1.51a6.7,6.7,0,0,1,6.58,6.58V793.25a6.73,6.73,0,0,1-6.58,6.75,6.89,6.89,0,0,1-6.75-6.75V705.17L61.93,760.68c-1.52,2.2-3.21,3.38-5.57,3.38s-4.22-1.18-5.74-3.38L13,705.34v88.08a6.5,6.5,0,1,1-13,0Z"/><path class="cls-1" d="M181.4,686.94a6.67,6.67,0,1,1,13.33,0V793.25a6.67,6.67,0,1,1-13.33,0Z"/><path class="cls-1" d="M263.07,687.11a6.7,6.7,0,0,1,6.58-6.58h1.85c3,0,4.9,1.52,6.75,3.88L350,775.87V686.78a6.5,6.5,0,1,1,13,0V793.42a6,6,0,0,1-6.07,6.24h-.68c-2.87,0-4.89-1.68-6.92-4L276.06,702v91.46a6.5,6.5,0,1,1-13,0Z"/><path class="cls-1" d="M431.3,686.94a6.67,6.67,0,1,1,13.33,0V793.25a6.67,6.67,0,1,1-13.33,0Z"/><path class="cls-1" d="M513,687.11a6.7,6.7,0,0,1,6.58-6.58h1.52a7.29,7.29,0,0,1,6.24,3.55l42.19,63.44,42.18-63.44a7.16,7.16,0,0,1,6.25-3.55h1.52a6.7,6.7,0,0,1,6.58,6.58V793.25a6.74,6.74,0,0,1-6.58,6.75,6.88,6.88,0,0,1-6.75-6.75V705.17l-37.8,55.51c-1.52,2.2-3.21,3.38-5.57,3.38s-4.22-1.18-5.74-3.38L526,705.34v88.08a6.5,6.5,0,1,1-13,0Z"/><path class="cls-1" d="M685.93,790.38,733.85,685.6c1.69-3.72,4.22-5.91,8.44-5.91H743c4,0,6.75,2.19,8.26,5.91l47.93,104.61a9.15,9.15,0,0,1,.84,3.38,6.41,6.41,0,0,1-6.41,6.41c-3.21,0-5.4-2.19-6.58-4.89l-12.32-27.17h-64.8l-12.31,27.5a6.7,6.7,0,0,1-6.42,4.56,6,6,0,0,1-6.07-6.07A7.74,7.74,0,0,1,685.93,790.38Zm83.53-34.59-27.17-60.41-27.17,60.41Z"/><polygon class="cls-1" points="525.08 124.88 459.66 414.07 494.76 560.89 560.18 271.69 525.08 124.88"/><polygon class="cls-1" points="339.2 49.8 262.52 388.8 291.9 560.89 368.58 221.89 339.2 49.8"/><polygon class="cls-2" points="215.91 0 89.04 560.89 223.59 560.89 262.52 388.8 339.2 49.8 215.91 0"/><polygon class="cls-3" points="401.79 75.08 368.58 221.89 291.9 560.89 426.45 560.89 459.66 414.07 525.08 124.88 401.79 75.08"/><polygon class="cls-4" points="587.67 150.16 560.18 271.69 494.76 560.89 629.32 560.89 710.96 199.95 587.67 150.16"/></svg>