<svg id="Layer_1" data-name="Layer 1" xmlns="http://www.w3.org/2000/svg" viewBox="0 0 700.55 700"><defs><style>.cls-1{fill:#16181c;}.cls-2{fill:#a7a7b0;}.cls-3{fill:#91919d;}.cls-4{fill:#bdbdc4;}</style></defs><path class="cls-1" d="M.27,601.22A5.86,5.86,0,0,1,6,595.47H7.36a6.39,6.39,0,0,1,5.46,3.1l36.92,55.51,36.91-55.51a6.26,6.26,0,0,1,5.46-3.1h1.33a5.86,5.86,0,0,1,5.76,5.75v92.87A5.9,5.9,0,0,1,93.44,700a6,6,0,0,1-5.91-5.91V617L54.46,665.6c-1.33,1.92-2.81,2.95-4.87,2.95a5.94,5.94,0,0,1-5-2.95L11.64,617.17v77.07a5.69,5.69,0,1,1-11.37,0Z"/><path class="cls-1" d="M159,601.08a5.83,5.83,0,1,1,11.66,0v93a5.83,5.83,0,1,1-11.66,0Z"/><path class="cls-1" d="M230.46,601.22a5.85,5.85,0,0,1,5.76-5.75h1.62c2.66,0,4.28,1.33,5.91,3.39l62.75,80v-78a5.68,5.68,0,1,1,11.36,0v93.31a5.23,5.23,0,0,1-5.31,5.46H312c-2.51,0-4.28-1.47-6.06-3.54l-64.07-81.94v80a5.69,5.69,0,1,1-11.37,0Z"/><path class="cls-1" d="M377.66,601.08a5.84,5.84,0,1,1,11.67,0v93a5.84,5.84,0,1,1-11.67,0Z"/><path class="cls-1" d="M449.12,601.22a5.86,5.86,0,0,1,5.76-5.75h1.33a6.39,6.39,0,0,1,5.46,3.1l36.92,55.51,36.91-55.51a6.26,6.26,0,0,1,5.46-3.1h1.33a5.86,5.86,0,0,1,5.76,5.75v92.87a5.9,5.9,0,0,1-5.76,5.91,6,6,0,0,1-5.91-5.91V617L503.31,665.6c-1.33,1.92-2.81,2.95-4.87,2.95a5.94,5.94,0,0,1-5-2.95l-32.93-48.43v77.07a5.69,5.69,0,1,1-11.37,0Z"/><path class="cls-1" d="M600.46,691.58,642.4,599.9c1.47-3.25,3.69-5.17,7.38-5.17h.59c3.54,0,5.9,1.92,7.23,5.17l41.94,91.54a7.87,7.87,0,0,1,.73,2.95,5.61,5.61,0,0,1-5.61,5.61c-2.8,0-4.72-1.92-5.76-4.28L678.13,672h-56.7L610.65,696a5.84,5.84,0,0,1-5.61,4,5.29,5.29,0,0,1-5.31-5.32A6.74,6.74,0,0,1,600.46,691.58Zm73.09-30.26-23.77-52.86L626,661.32Z"/><polygon class="cls-1" points="459.72 109.27 402.48 362.32 433.19 490.78 490.43 237.73 459.72 109.27"/><polygon class="cls-1" points="297.07 43.57 229.98 340.2 255.69 490.78 322.78 194.16 297.07 43.57"/><polygon class="cls-2" points="189.2 0 78.18 490.78 195.92 490.78 229.98 340.2 297.07 43.57 189.2 0"/><polygon class="cls-3" points="351.84 65.69 322.78 194.16 255.69 490.78 373.42 490.78 402.48 362.32 459.72 109.27 351.84 65.69"/><polygon class="cls-4" points="514.49 131.39 490.43 237.73 433.19 490.78 550.93 490.78 622.36 174.96 514.49 131.39"/></svg>