<svg id="Layer_1" data-name="Layer 1" xmlns="http://www.w3.org/2000/svg" viewBox="0 0 200 200"><defs><style>.cls-1{fill:#16181c;}.cls-2{fill:#a7a7b0;}.cls-3{fill:#91919d;}.cls-4{fill:#bdbdc4;}</style></defs><path class="cls-1" d="M0,171.78a1.68,1.68,0,0,1,1.65-1.65H2a1.84,1.84,0,0,1,1.57.89l10.54,15.86L24.68,171a1.78,1.78,0,0,1,1.56-.89h.38a1.68,1.68,0,0,1,1.64,1.65v26.53A1.68,1.68,0,0,1,26.62,200a1.72,1.72,0,0,1-1.69-1.69v-22l-9.45,13.88a1.62,1.62,0,0,1-1.39.84,1.69,1.69,0,0,1-1.43-.84L3.25,176.33v22a1.63,1.63,0,1,1-3.25,0Z"/><path class="cls-1" d="M45.35,171.74a1.67,1.67,0,1,1,3.33,0v26.57a1.67,1.67,0,1,1-3.33,0Z"/><path class="cls-1" d="M65.77,171.78a1.68,1.68,0,0,1,1.64-1.65h.47a2,2,0,0,1,1.68,1L87.49,194V171.69a1.63,1.63,0,1,1,3.25,0v26.66a1.5,1.5,0,0,1-1.52,1.57h-.17a2.31,2.31,0,0,1-1.73-1L69,175.49v22.86a1.62,1.62,0,1,1-3.24,0Z"/><path class="cls-1" d="M107.83,171.74a1.67,1.67,0,1,1,3.33,0v26.57a1.67,1.67,0,1,1-3.33,0Z"/><path class="cls-1" d="M128.24,171.78a1.68,1.68,0,0,1,1.65-1.65h.38a1.83,1.83,0,0,1,1.56.89l10.54,15.86L152.92,171a1.8,1.8,0,0,1,1.56-.89h.38a1.68,1.68,0,0,1,1.65,1.65v26.53a1.69,1.69,0,0,1-1.65,1.69,1.72,1.72,0,0,1-1.69-1.69v-22l-9.45,13.88a1.62,1.62,0,0,1-1.39.84,1.69,1.69,0,0,1-1.43-.84l-9.41-13.84v22a1.63,1.63,0,1,1-3.25,0Z"/><path class="cls-1" d="M171.48,197.6l12-26.2a2.19,2.19,0,0,1,2.11-1.48h.17a2.13,2.13,0,0,1,2.07,1.48l12,26.15a2.21,2.21,0,0,1,.21.85,1.6,1.6,0,0,1-1.6,1.6,1.84,1.84,0,0,1-1.65-1.22l-3.08-6.8h-16.2l-3.08,6.88a1.66,1.66,0,0,1-1.6,1.14,1.51,1.51,0,0,1-1.52-1.52A1.87,1.87,0,0,1,171.48,197.6ZM192.36,189l-6.79-15.1L178.78,189Z"/><polygon class="cls-1" points="131.27 31.22 114.92 103.52 123.69 140.22 140.04 67.92 131.27 31.22"/><polygon class="cls-1" points="84.8 12.45 65.63 97.2 72.97 140.22 92.14 55.47 84.8 12.45"/><polygon class="cls-2" points="53.98 0 22.26 140.22 55.9 140.22 65.63 97.2 84.8 12.45 53.98 0"/><polygon class="cls-3" points="100.45 18.77 92.14 55.47 72.97 140.22 106.61 140.22 114.92 103.52 131.27 31.22 100.45 18.77"/><polygon class="cls-4" points="146.92 37.54 140.04 67.92 123.69 140.22 157.33 140.22 177.74 49.99 146.92 37.54"/></svg>