<svg id="Layer_1" data-name="Layer 1" xmlns="http://www.w3.org/2000/svg" viewBox="0 0 600 600"><defs><style>.cls-1{fill:#16181c;}.cls-2{fill:#a7a7b0;}.cls-3{fill:#91919d;}.cls-4{fill:#bdbdc4;}</style></defs><path class="cls-1" d="M0,515.34a5,5,0,0,1,4.94-4.94H6.07a5.49,5.49,0,0,1,4.69,2.66L42.4,560.64,74,513.06a5.37,5.37,0,0,1,4.69-2.66h1.14a5,5,0,0,1,4.93,4.94v79.6A5.05,5.05,0,0,1,79.86,600a5.16,5.16,0,0,1-5.07-5.06V528.88L46.45,570.51A4.9,4.9,0,0,1,42.27,573a5.08,5.08,0,0,1-4.3-2.53L9.74,529v66.06a4.87,4.87,0,1,1-9.74,0Z"/><path class="cls-1" d="M136.05,515.21a5,5,0,1,1,10,0v79.73a5,5,0,1,1-10,0Z"/><path class="cls-1" d="M197.3,515.34a5,5,0,0,1,4.94-4.94h1.39c2.28,0,3.67,1.14,5.06,2.91l53.79,68.59V515.08a4.87,4.87,0,1,1,9.74,0v80a4.5,4.5,0,0,1-4.56,4.69h-.5c-2.15,0-3.67-1.27-5.19-3L207,526.47v68.59a4.87,4.87,0,1,1-9.74,0Z"/><path class="cls-1" d="M323.48,515.21a5,5,0,1,1,10,0v79.73a5,5,0,1,1-10,0Z"/><path class="cls-1" d="M384.73,515.34a5,5,0,0,1,4.93-4.94h1.14a5.5,5.5,0,0,1,4.69,2.66l31.63,47.58,31.64-47.58a5.37,5.37,0,0,1,4.69-2.66h1.13a5,5,0,0,1,4.94,4.94v79.6a5.06,5.06,0,0,1-4.94,5.06,5.16,5.16,0,0,1-5.06-5.06V528.88l-28.35,41.63C430,572.16,428.77,573,427,573a5.1,5.1,0,0,1-4.31-2.53L394.47,529v66.06a4.87,4.87,0,1,1-9.74,0Z"/><path class="cls-1" d="M514.45,592.79l35.94-78.59c1.27-2.79,3.16-4.43,6.33-4.43h.5c3,0,5.07,1.64,6.21,4.43l35.94,78.46a6.75,6.75,0,0,1,.63,2.53,4.81,4.81,0,0,1-4.81,4.81c-2.4,0-4.05-1.65-4.93-3.67L581,576h-48.6l-9.24,20.63a5,5,0,0,1-4.81,3.42,4.53,4.53,0,0,1-4.55-4.56A5.67,5.67,0,0,1,514.45,592.79Zm62.64-25.95-20.37-45.3-20.38,45.3Z"/><polygon class="cls-1" points="393.81 93.66 344.75 310.56 371.07 420.67 420.13 203.77 393.81 93.66"/><polygon class="cls-1" points="254.4 37.35 196.89 291.6 218.93 420.67 276.44 166.42 254.4 37.35"/><polygon class="cls-2" points="161.94 0 66.78 420.67 167.69 420.67 196.89 291.6 254.4 37.35 161.94 0"/><polygon class="cls-3" points="301.34 56.31 276.44 166.42 218.93 420.67 319.84 420.67 344.75 310.56 393.81 93.66 301.34 56.31"/><polygon class="cls-4" points="440.75 112.62 420.13 203.77 371.07 420.67 471.99 420.67 533.22 149.97 440.75 112.62"/></svg>