<svg id="Layer_1" data-name="Layer 1" xmlns="http://www.w3.org/2000/svg" viewBox="0 0 500.01 500"><defs><style>.cls-1{fill:#16181c;}.cls-2{fill:#a7a7b0;}.cls-3{fill:#91919d;}.cls-4{fill:#bdbdc4;}</style></defs><path class="cls-1" d="M0,429.45a4.18,4.18,0,0,1,4.11-4.12h1A4.56,4.56,0,0,1,9,427.55L35.34,467.2,61.7,427.55a4.48,4.48,0,0,1,3.9-2.22h1a4.19,4.19,0,0,1,4.12,4.12v66.33A4.21,4.21,0,0,1,66.55,500a4.3,4.3,0,0,1-4.22-4.22v-55l-23.62,34.7a4.08,4.08,0,0,1-3.48,2.11,4.25,4.25,0,0,1-3.59-2.11L8.13,440.84v55.05A4.06,4.06,0,0,1,4,500a4,4,0,0,1-4-4.11Z"/><path class="cls-1" d="M113.38,429.34a4.17,4.17,0,1,1,8.33,0v66.44a4.17,4.17,0,1,1-8.33,0Z"/><path class="cls-1" d="M164.42,429.45a4.19,4.19,0,0,1,4.12-4.12h1.16c1.89,0,3.05.95,4.21,2.43l44.83,57.16V429.24a4.06,4.06,0,1,1,8.12,0v66.65a3.75,3.75,0,0,1-3.8,3.9h-.42c-1.8,0-3.06-1.06-4.33-2.53l-45.77-58.53v57.16a4.06,4.06,0,1,1-8.12,0Z"/><path class="cls-1" d="M269.57,429.34a4.17,4.17,0,1,1,8.33,0v66.44a4.17,4.17,0,1,1-8.33,0Z"/><path class="cls-1" d="M320.61,429.45a4.19,4.19,0,0,1,4.12-4.12h.95a4.57,4.57,0,0,1,3.9,2.22l26.36,39.65,26.37-39.65a4.47,4.47,0,0,1,3.9-2.22h1a4.19,4.19,0,0,1,4.11,4.12v66.33a4.21,4.21,0,0,1-4.11,4.22,4.3,4.3,0,0,1-4.22-4.22v-55l-23.62,34.7a4.09,4.09,0,0,1-3.48,2.11,4.25,4.25,0,0,1-3.59-2.11l-23.52-34.59v55.05a4.06,4.06,0,1,1-8.12,0Z"/><path class="cls-1" d="M428.71,494l30-65.49c1.06-2.32,2.64-3.69,5.28-3.69h.42a5.32,5.32,0,0,1,5.17,3.69l30,65.38A5.79,5.79,0,0,1,500,496a4,4,0,0,1-4,4,4.53,4.53,0,0,1-4.11-3.06l-7.7-17h-40.5L436,497.15a4.17,4.17,0,0,1-4,2.85,3.78,3.78,0,0,1-3.79-3.8A4.78,4.78,0,0,1,428.71,494Zm52.21-21.62-17-37.76-17,37.76Z"/><polygon class="cls-1" points="328.18 78.05 287.3 258.8 309.23 350.56 350.12 169.81 328.18 78.05"/><polygon class="cls-1" points="212.01 31.12 164.08 243 182.44 350.56 230.37 138.68 212.01 31.12"/><polygon class="cls-2" points="134.95 0 55.66 350.56 139.75 350.56 164.08 243 212.01 31.12 134.95 0"/><polygon class="cls-3" points="251.13 46.92 230.37 138.68 182.44 350.56 266.54 350.56 287.3 258.8 328.18 78.05 251.13 46.92"/><polygon class="cls-4" points="367.3 93.85 350.12 169.81 309.23 350.56 393.33 350.56 444.36 124.97 367.3 93.85"/></svg>