<?xml version="1.0" encoding="UTF-8"?><svg id="Layer_2" xmlns="http://www.w3.org/2000/svg" viewBox="0 0 200 200"><defs><style>.cls-1{fill:#16181c;}</style></defs><path class="cls-1" d="M155,90c24.85,0,45-20.15,45-45S179.85,0,155,0s-45,20.15-45,45h0s45,0,45,0v45Z"/><path class="cls-1" d="M90,45h0C90,20.15,69.85,0,45,0S0,20.15,0,45s20.15,45,45,45h0V45h45Z"/><path class="cls-1" d="M155,110v45h-45c0,24.85,20.15,45,45,45s45-20.15,45-45-20.15-45-45-45Z"/><path class="cls-1" d="M45,110h0C20.15,110,0,130.14,0,155s20.15,45,45,45,45-20.15,45-45H45v-45Z"/><path class="cls-1" d="M121.46,75h-42.93c-1.11,1.24-2.29,2.42-3.54,3.54v42.93c1.24,1.11,2.42,2.29,3.54,3.54h42.93c1.11-1.24,2.29-2.42,3.54-3.54v-42.93c-1.24-1.11-2.42-2.29-3.54-3.54Z"/><path class="cls-1" d="M125,78.54v-3.54h-3.54c1.11,1.24,2.29,2.42,3.54,3.54Z"/><path class="cls-1" d="M78.54,75h-3.54v3.54c1.24-1.11,2.42-2.29,3.54-3.54Z"/><path class="cls-1" d="M121.46,125h3.54v-3.54c-1.24,1.11-2.42,2.29-3.54,3.54Z"/><path class="cls-1" d="M75,121.46v3.54h3.54c-1.11-1.24-2.29-2.42-3.54-3.54Z"/></svg>