<svg id="Layer_1" data-name="Layer 1" xmlns="http://www.w3.org/2000/svg" viewBox="0 0 200 30.08"><defs><style>.cls-1{fill:#fff;}</style></defs><path class="cls-1" d="M0,1.86A1.68,1.68,0,0,1,1.65.22H2a1.85,1.85,0,0,1,1.57.88L14.13,17,24.68,1.1A1.78,1.78,0,0,1,26.24.22h.38a1.67,1.67,0,0,1,1.64,1.64V28.4a1.68,1.68,0,0,1-1.64,1.68,1.72,1.72,0,0,1-1.69-1.68v-22L15.48,20.25a1.63,1.63,0,0,1-1.39.85,1.7,1.7,0,0,1-1.43-.85L3.25,6.42v22A1.62,1.62,0,0,1,1.6,30.08,1.61,1.61,0,0,1,0,28.44Z"/><path class="cls-1" d="M45.35,1.82a1.67,1.67,0,1,1,3.33,0V28.4a1.67,1.67,0,1,1-3.33,0Z"/><path class="cls-1" d="M65.77,1.86A1.67,1.67,0,0,1,67.41.22h.47a2,2,0,0,1,1.68,1L87.49,24.05V1.78a1.63,1.63,0,1,1,3.25,0V28.44A1.5,1.5,0,0,1,89.22,30h-.17a2.3,2.3,0,0,1-1.73-1L69,5.57V28.44a1.62,1.62,0,1,1-3.24,0Z"/><path class="cls-1" d="M107.83,1.82a1.67,1.67,0,1,1,3.33,0V28.4a1.67,1.67,0,1,1-3.33,0Z"/><path class="cls-1" d="M128.24,1.86A1.68,1.68,0,0,1,129.89.22h.38a1.85,1.85,0,0,1,1.56.88L142.37,17,152.92,1.1a1.79,1.79,0,0,1,1.56-.88h.38a1.68,1.68,0,0,1,1.65,1.64V28.4a1.68,1.68,0,0,1-1.65,1.68,1.72,1.72,0,0,1-1.69-1.68v-22l-9.45,13.88a1.63,1.63,0,0,1-1.39.85,1.7,1.7,0,0,1-1.43-.85L131.49,6.42v22a1.63,1.63,0,1,1-3.25,0Z"/><path class="cls-1" d="M171.48,27.68l12-26.2A2.19,2.19,0,0,1,185.57,0h.17a2.13,2.13,0,0,1,2.07,1.48l12,26.16a2.16,2.16,0,0,1,.21.84,1.6,1.6,0,0,1-1.6,1.6,1.84,1.84,0,0,1-1.65-1.22l-3.08-6.79h-16.2l-3.08,6.87a1.66,1.66,0,0,1-1.6,1.14,1.51,1.51,0,0,1-1.52-1.52A1.9,1.9,0,0,1,171.48,27.68ZM192.36,19l-6.79-15.1L178.78,19Z"/></svg>