<svg id="Layer_1" data-name="Layer 1" xmlns="http://www.w3.org/2000/svg" viewBox="0 0 700 631.31"><defs><style>.cls-1{fill:#16181c;}</style></defs><path class="cls-1" d="M561.23,169.1,530.29,305.89,490.78,140.64,352,84.59,314.64,249.84,281.57,56.14,142.8.09,0,631.39H151.45L195.26,437.7l33.07,193.69H379.78l37.37-165.24h0l39.51,165.24H608.11L700,225.15Zm-421,448.29H17.52L152.82,19.24,265.29,64.66Zm63.09-215.48,70.13-310,33.06,193.7-70.12,310ZM368.59,617.39H245.85L362,103.74,474.5,149.17Zm95.07-16.93L424.15,435.21l59.64-263.63,39.5,165.25Zm133.26,16.93H474.18l97.08-429.15,112.46,45.43Z"/></svg>