<svg id="Layer_1" data-name="Layer 1" xmlns="http://www.w3.org/2000/svg" viewBox="0 0 300 270.56"><defs><style>.cls-1{fill:#16181c;}</style></defs><path class="cls-1" d="M240.53,72.43l-13.26,58.63L210.34,60.24l-59.48-24-16,70.82L120.67,24,61.2,0,0,270.56H64.91l18.77-83,14.18,83h64.9l16-70.82h0l16.93,70.82h64.91L300,96.45ZM60.11,264.56H7.51L65.5,8.21l48.19,19.46Zm27-92.35L117.2,39.36l14.18,83L101.32,255.22ZM158,264.56H105.36l49.8-220.14,48.2,19.47Zm40.74-7.26-16.93-70.82,25.56-113,16.93,70.82Zm57.11,7.26h-52.6l41.6-183.92L293,100.11Z"/></svg>