<svg id="Layer_1" data-name="Layer 1" xmlns="http://www.w3.org/2000/svg" viewBox="0 0 500 450.93"><defs><style>.cls-1{fill:#16181c;}</style></defs><path class="cls-1" d="M400.88,120.72l-22.1,97.71-28.22-118-99.12-40-26.7,118L201.12,40,102,0,0,450.93H108.18l31.29-138.35,23.62,138.35H271.27l26.7-118h0l28.22,118H434.36L500,160.76ZM100.18,440.93H12.51L109.16,13.68l80.33,32.44ZM145.25,287,195.34,65.59,219,204,168.87,425.37Zm118,153.91H175.61L258.6,74l80.33,32.44Zm67.9-12.1L303,310.8l42.59-188.31,28.22,118Zm95.19,12.1H338.7L408,134.4l80.33,32.44Z"/></svg>