<svg id="Layer_1" data-name="Layer 1" xmlns="http://www.w3.org/2000/svg" viewBox="0 0 400 85.76"><defs><style>.cls-1{fill:#fff;}.cls-2{fill:#a7a7b0;}.cls-3{fill:#91919d;}.cls-4{fill:#bdbdc4;}</style></defs><polygon class="cls-1" points="66.67 19.09 56.67 63.31 62.03 85.76 72.03 41.54 66.67 19.09"/><polygon class="cls-1" points="38.25 7.61 26.52 59.45 31.02 85.76 42.74 33.93 38.25 7.61"/><polygon class="cls-2" points="19.4 0 0 85.76 20.57 85.76 26.52 59.45 38.25 7.61 19.4 0"/><polygon class="cls-3" points="47.82 11.48 42.74 33.93 31.02 85.76 51.59 85.76 56.67 63.31 66.67 19.09 47.82 11.48"/><polygon class="cls-4" points="76.24 22.96 72.03 41.54 62.03 85.76 82.61 85.76 95.09 30.57 76.24 22.96"/><path class="cls-1" d="M128,47.48a2.27,2.27,0,0,1,2.24-2.23h.51a2.48,2.48,0,0,1,2.13,1.2L147.23,68l14.34-21.51a2.43,2.43,0,0,1,2.12-1.2h.52a2.28,2.28,0,0,1,2.24,2.23v36a2.29,2.29,0,0,1-2.24,2.29,2.34,2.34,0,0,1-2.29-2.29V53.6L149.06,72.43a2.22,2.22,0,0,1-1.89,1.14,2.32,2.32,0,0,1-1.95-1.14L132.43,53.66V83.53a2.21,2.21,0,1,1-4.42,0Z"/><path class="cls-1" d="M189.68,47.42a2.27,2.27,0,1,1,4.54,0V83.47a2.27,2.27,0,1,1-4.54,0Z"/><path class="cls-1" d="M217.45,47.48a2.27,2.27,0,0,1,2.24-2.23h.63a2.76,2.76,0,0,1,2.29,1.31l24.38,31V47.36a2.21,2.21,0,1,1,4.42,0V83.53a2,2,0,0,1-2.06,2.11h-.23a3.08,3.08,0,0,1-2.35-1.37l-24.9-31.76v31a2.21,2.21,0,1,1-4.42,0Z"/><path class="cls-1" d="M274.65,47.42a2.27,2.27,0,1,1,4.53,0V83.47a2.27,2.27,0,1,1-4.53,0Z"/><path class="cls-1" d="M302.41,47.48a2.28,2.28,0,0,1,2.24-2.23h.52a2.48,2.48,0,0,1,2.12,1.2L321.63,68,336,46.45a2.43,2.43,0,0,1,2.13-1.2h.51a2.27,2.27,0,0,1,2.24,2.23v36a2.29,2.29,0,0,1-2.24,2.29,2.34,2.34,0,0,1-2.29-2.29V53.6L323.47,72.43a2.23,2.23,0,0,1-1.89,1.14,2.33,2.33,0,0,1-2-1.14L306.83,53.66V83.53a2.21,2.21,0,1,1-4.42,0Z"/><path class="cls-1" d="M361.22,82.5,377.51,47a3,3,0,0,1,2.87-2h.23a2.89,2.89,0,0,1,2.81,2l16.29,35.48a2.91,2.91,0,0,1,.29,1.14,2.19,2.19,0,0,1-2.18,2.18,2.48,2.48,0,0,1-2.24-1.66l-4.19-9.21h-22l-4.18,9.32A2.27,2.27,0,0,1,363,85.76a2.06,2.06,0,0,1-2.07-2.06A2.56,2.56,0,0,1,361.22,82.5Zm28.4-11.73-9.24-20.49-9.24,20.49Z"/></svg>