<svg id="Layer_1" data-name="Layer 1" xmlns="http://www.w3.org/2000/svg" viewBox="0 0 700 150.08"><defs><style>.cls-1{fill:#fff;}.cls-2{fill:#a7a7b0;}.cls-3{fill:#91919d;}.cls-4{fill:#bdbdc4;}</style></defs><polygon class="cls-1" points="116.67 33.41 99.17 110.79 108.56 150.08 126.06 72.7 116.67 33.41"/><polygon class="cls-1" points="66.94 13.32 46.42 104.03 54.28 150.08 74.8 59.37 66.94 13.32"/><polygon class="cls-2" points="33.95 0 0 150.08 36 150.08 46.42 104.03 66.94 13.32 33.95 0"/><polygon class="cls-3" points="83.68 20.09 74.8 59.37 54.28 150.08 90.28 150.08 99.17 110.79 116.67 33.41 83.68 20.09"/><polygon class="cls-4" points="133.42 40.18 126.06 72.7 108.56 150.08 144.56 150.08 166.41 53.5 133.42 40.18"/><path class="cls-1" d="M224,83.08a4,4,0,0,1,3.91-3.9h.91a4.35,4.35,0,0,1,3.71,2.1l25.1,37.65,25.1-37.65a4.26,4.26,0,0,1,3.71-2.1h.91a4,4,0,0,1,3.91,3.9v63a4,4,0,0,1-3.91,4,4.1,4.1,0,0,1-4-4V93.8l-22.49,32.94a3.86,3.86,0,0,1-3.31,2,4,4,0,0,1-3.41-2L231.75,93.9v52.27a3.87,3.87,0,1,1-7.73,0Z"/><path class="cls-1" d="M332,83a4,4,0,1,1,7.93,0v63.09a4,4,0,1,1-7.93,0Z"/><path class="cls-1" d="M380.54,83.08a4,4,0,0,1,3.91-3.9h1.11c1.8,0,2.91.9,4,2.3l42.67,54.28V82.88a3.87,3.87,0,1,1,7.73,0v63.29a3.56,3.56,0,0,1-3.61,3.71H436c-1.71,0-2.92-1-4.12-2.41L388.27,91.9v54.27a3.87,3.87,0,1,1-7.73,0Z"/><path class="cls-1" d="M480.63,83a4,4,0,1,1,7.93,0v63.09a4,4,0,1,1-7.93,0Z"/><path class="cls-1" d="M529.22,83.08a4,4,0,0,1,3.92-3.9h.9a4.36,4.36,0,0,1,3.72,2.1l25.1,37.65L588,81.28a4.25,4.25,0,0,1,3.71-2.1h.9a4,4,0,0,1,3.92,3.9v63a4,4,0,0,1-3.92,4,4.1,4.1,0,0,1-4-4V93.8l-22.49,32.94a3.88,3.88,0,0,1-3.31,2,4,4,0,0,1-3.42-2L537,93.9v52.27a3.87,3.87,0,1,1-7.73,0Z"/><path class="cls-1" d="M632.13,144.37l28.51-62.19c1-2.2,2.51-3.5,5-3.5h.41a5.06,5.06,0,0,1,4.92,3.5l28.51,62.09a5.34,5.34,0,0,1,.5,2,3.82,3.82,0,0,1-3.82,3.81,4.33,4.33,0,0,1-3.91-2.91l-7.33-16.12H646.39l-7.33,16.32a4,4,0,0,1-3.82,2.71,3.6,3.6,0,0,1-3.61-3.61A4.55,4.55,0,0,1,632.13,144.37Zm49.7-20.53L665.66,88,649.5,123.84Z"/></svg>