<?xml version="1.0" encoding="UTF-8"?><svg id="Layer_1" xmlns="http://www.w3.org/2000/svg" viewBox="0 0 800 800"><defs><style>.cls-1{fill:#08090b;}</style></defs><polygon class="cls-1" points="587.58 150.19 560.11 271.61 525.01 124.91 401.85 74.99 368.5 221.91 339.07 49.7 215.91 0 89.04 560.88 223.54 560.88 262.56 388.67 291.77 560.88 426.48 560.88 459.62 413.96 494.71 560.88 629.21 560.88 710.96 199.89 587.58 150.19"/><g><rect class="cls-1" x="181.3" y="681.26" width="13.33" height="118.74" rx="6.67" ry="6.67"/><rect class="cls-1" x="432.81" y="681.26" width="13.33" height="118.74" rx="6.67" ry="6.67"/><path class="cls-1" d="M56.48,748.13l-42.43-63.77c-1.29-1.94-3.46-3.1-5.79-3.1h-1.6C3,681.26,0,684.26,0,687.93v105.41c0,3.67,3,6.67,6.67,6.67,3.67,0,6.67-3,6.67-6.67v-88.25s37.75,55.4,37.75,55.4c1.7,2.49,3.51,3.29,5.39,3.29h0c1.88,0,3.7-.8,5.39-3.29l37.75-55.4v88.25c0,3.67,3,6.67,6.67,6.67s6.67-3,6.67-6.67v-105.41c0-3.67-3-6.67-6.67-6.67h-1.6c-2.33,0-4.5,1.16-5.79,3.1l-42.43,63.77h0Z"/><path class="cls-1" d="M570.96,748.13l-42.43-63.77c-1.29-1.94-3.46-3.1-5.79-3.1h-1.6c-3.67,0-6.67,3-6.67,6.67v105.41c0,3.67,3,6.67,6.67,6.67,3.67,0,6.67-3,6.67-6.67v-88.25s37.75,55.4,37.75,55.4c1.7,2.49,3.51,3.29,5.39,3.29h0c1.88,0,3.7-.8,5.39-3.29l37.75-55.4v88.25c0,3.67,3,6.67,6.67,6.67s6.67-3,6.67-6.67v-105.41c0-3.67-3-6.67-6.67-6.67h-1.6c-2.33,0-4.5,1.16-5.79,3.1l-42.43,63.77h0Z"/><path class="cls-1" d="M351.14,778.25l-73.98-94.34c-1.32-1.67-3.33-2.65-5.46-2.65h-2.06c-3.67,0-6.67,3-6.67,6.67v105.41c0,3.67,3,6.67,6.67,6.67h0c3.67,0,6.67-3,6.67-6.67v-90.32l72.95,93.07,1.03,1.27c1.32,1.67,3.33,2.65,5.46,2.65h2.06c3.67,0,6.67-3,6.67-6.67v-105.41c0-3.67-3-6.67-6.67-6.67h0c-3.67,0-6.67,3-6.67,6.67v90.32Z"/><path class="cls-1" d="M799.43,791.09s-46.71-102.03-47.95-104.73c-1.24-2.7-3.98-5.1-8.45-5.1s-7.21,2.4-8.45,5.1c-1.24,2.7-47.95,104.73-47.95,104.73-1.43,3.13-.04,6.87,3.09,8.3,3.13,1.43,6.87,.04,8.31-3.09l12.47-27.78h65.07l12.47,27.78c1.44,3.13,5.17,4.52,8.31,3.09,3.13-1.43,4.52-5.17,3.09-8.3Zm-56.4-34.84h-27.02l27.02-60.18,27.02,60.18h-27.02Z"/></g></svg>