<?xml version="1.0" encoding="UTF-8"?><svg id="Layer_1" xmlns="http://www.w3.org/2000/svg" viewBox="0 0 900 165.11"><defs><style>.cls-1{fill:#08090b;}</style></defs><polygon class="cls-1" points="146.75 44.21 138.67 79.95 128.34 36.77 92.08 22.07 82.26 65.32 73.6 14.63 37.35 0 0 165.11 39.59 165.11 51.08 114.41 59.68 165.11 99.33 165.11 109.09 121.86 119.42 165.11 159.01 165.11 183.07 58.84 146.75 44.21"/><rect class="cls-1" x="409.01" y="70.88" width="10.58" height="94.23" rx="5.29" ry="5.29"/><rect class="cls-1" x="608.61" y="70.88" width="10.58" height="94.23" rx="5.29" ry="5.29"/><path class="cls-1" d="M309.96,123.95l-33.67-50.61c-1.02-1.54-2.75-2.46-4.59-2.46h-1.27c-2.91,0-5.29,2.38-5.29,5.29v83.65c0,2.91,2.38,5.29,5.29,5.29,2.91,0,5.29-2.38,5.29-5.29V89.79s29.96,43.96,29.96,43.96c1.35,1.98,2.79,2.61,4.28,2.61h0c1.49,0,2.93-.64,4.28-2.61l29.96-43.96v70.03c0,2.91,2.38,5.29,5.29,5.29s5.29-2.38,5.29-5.29V76.17c0-2.91-2.38-5.29-5.29-5.29h-1.27c-1.85,0-3.57,.92-4.59,2.46l-33.67,50.61h0Z"/><path class="cls-1" d="M718.24,123.95l-33.67-50.61c-1.02-1.54-2.75-2.46-4.59-2.46h-1.27c-2.91,0-5.29,2.38-5.29,5.29v83.65c0,2.91,2.38,5.29,5.29,5.29,2.91,0,5.29-2.38,5.29-5.29V89.79s29.96,43.96,29.96,43.96c1.35,1.98,2.79,2.61,4.28,2.61h0c1.49,0,2.93-.64,4.28-2.61l29.96-43.96v70.03c0,2.91,2.38,5.29,5.29,5.29s5.29-2.38,5.29-5.29V76.17c0-2.91-2.38-5.29-5.29-5.29h-1.27c-1.85,0-3.57,.92-4.59,2.46l-33.67,50.61h0Z"/><path class="cls-1" d="M543.79,147.85l-58.71-74.87c-1.05-1.33-2.64-2.1-4.33-2.1h-1.63c-2.91,0-5.29,2.38-5.29,5.29v83.65c0,2.91,2.38,5.29,5.29,5.29h0c2.91,0,5.29-2.38,5.29-5.29V88.14l57.89,73.86,.82,1.01c1.05,1.33,2.64,2.1,4.33,2.1h1.63c2.91,0,5.29-2.38,5.29-5.29V76.17c0-2.91-2.38-5.29-5.29-5.29h0c-2.91,0-5.29,2.38-5.29,5.29v71.68Z"/><path class="cls-1" d="M899.55,158.03s-37.07-80.97-38.05-83.11c-.99-2.14-3.16-4.05-6.7-4.05s-5.72,1.9-6.7,4.05-38.05,83.11-38.05,83.11c-1.14,2.49-.04,5.45,2.45,6.59,2.49,1.14,5.45,.04,6.59-2.45l9.9-22.04h51.63l9.9,22.04c1.14,2.49,4.1,3.59,6.59,2.45,2.49-1.14,3.59-4.1,2.45-6.59Zm-44.76-27.65h-21.44l21.44-47.76,21.44,47.76h-21.44Z"/></svg>