<?xml version="1.0" encoding="UTF-8"?><svg id="Layer_1" xmlns="http://www.w3.org/2000/svg" viewBox="0 0 1190.55 176.71"><defs><style>.cls-1{fill:#08090b;}</style></defs><rect class="cls-1" x="269.8" y="0" width="19.84" height="176.71" rx="9.92" ry="9.92"/><rect class="cls-1" x="644.11" y="0" width="19.84" height="176.71" rx="9.92" ry="9.92"/><path class="cls-1" d="M84.05,99.52L20.91,4.61C18.99,1.73,15.76,0,12.3,0h-2.38C4.46,0,0,4.46,0,9.92V166.79c0,5.46,4.46,9.92,9.92,9.92,5.46,0,9.92-4.47,9.92-9.92V35.46s56.18,82.44,56.18,82.44c2.52,3.7,5.23,4.9,8.03,4.9h0c2.8,0,5.5-1.19,8.03-4.9l56.18-82.44V166.79c0,5.46,4.46,9.92,9.92,9.92s9.92-4.47,9.92-9.92V9.92C168.1,4.46,163.63,0,158.18,0h-2.38c-3.46,0-6.69,1.73-8.61,4.61l-63.14,94.9h0Z"/><path class="cls-1" d="M849.69,99.52L786.55,4.61C784.64,1.73,781.4,0,777.94,0h-2.38c-5.46,0-9.92,4.46-9.92,9.92V166.79c0,5.46,4.46,9.92,9.92,9.92,5.46,0,9.92-4.47,9.92-9.92V35.46s56.18,82.44,56.18,82.44c2.52,3.7,5.23,4.9,8.03,4.9h0c2.8,0,5.5-1.19,8.03-4.9l56.18-82.44V166.79c0,5.46,4.46,9.92,9.92,9.92s9.92-4.47,9.92-9.92V9.92C933.74,4.46,929.28,0,923.82,0h-2.38c-3.46,0-6.69,1.73-8.61,4.61l-63.14,94.9h0Z"/><path class="cls-1" d="M522.56,144.34L412.46,3.94C410.5,1.45,407.51,0,404.34,0h-3.06c-5.46,0-9.92,4.46-9.92,9.92V166.79c0,5.46,4.47,9.92,9.92,9.92h0c5.46,0,9.92-4.47,9.92-9.92V32.37l108.56,138.5,1.53,1.89c1.96,2.49,4.96,3.94,8.13,3.94h3.06c5.46,0,9.92-4.46,9.92-9.92V9.92c0-5.46-4.47-9.92-9.92-9.92h0c-5.46,0-9.92,4.47-9.92,9.92V144.34Z"/><path class="cls-1" d="M1189.71,163.44S1120.2,11.61,1118.35,7.59C1116.5,3.57,1112.43,0,1105.78,0s-10.72,3.57-12.57,7.59c-1.85,4.02-71.36,155.86-71.36,155.86-2.13,4.66-.07,10.22,4.6,12.36,4.66,2.13,10.22,.07,12.36-4.6l18.56-41.34h96.83l18.56,41.34c2.14,4.66,7.7,6.73,12.36,4.6,4.66-2.13,6.73-7.7,4.6-12.36Zm-83.93-51.85h-40.21l40.21-89.56,40.21,89.56h-40.21Z"/></svg>