<?xml version="1.0" encoding="UTF-8"?><svg id="Layer_1" xmlns="http://www.w3.org/2000/svg" viewBox="0 0 800.01 533.65"><defs><style>.cls-1{fill:#08090b;}</style></defs><polygon class="cls-1" points="503.23 82.66 488.11 149.48 468.8 68.74 401.02 41.27 382.66 122.12 366.47 27.35 298.69 0 228.87 308.67 302.89 308.67 324.36 213.9 340.44 308.67 414.58 308.67 432.81 227.81 452.12 308.67 526.14 308.67 571.13 110.01 503.23 82.66"/><g><rect class="cls-1" x="181.3" y="414.91" width="13.33" height="118.74" rx="6.67" ry="6.67"/><rect class="cls-1" x="432.81" y="414.91" width="13.33" height="118.74" rx="6.67" ry="6.67"/><path class="cls-1" d="M56.48,481.78l-42.43-63.77c-1.29-1.94-3.46-3.1-5.79-3.1h-1.6C3,414.91,0,417.91,0,421.58v105.41c0,3.67,3,6.67,6.67,6.67,3.67,0,6.67-3,6.67-6.67v-88.25s37.75,55.4,37.75,55.4c1.7,2.49,3.51,3.29,5.39,3.29h0c1.88,0,3.7-.8,5.39-3.29l37.75-55.4v88.25c0,3.67,3,6.67,6.67,6.67s6.67-3,6.67-6.67v-105.41c0-3.67-3-6.67-6.67-6.67h-1.6c-2.33,0-4.5,1.16-5.79,3.1l-42.43,63.77h0Z"/><path class="cls-1" d="M570.96,481.78l-42.43-63.77c-1.29-1.94-3.46-3.1-5.79-3.1h-1.6c-3.67,0-6.67,3-6.67,6.67v105.41c0,3.67,3,6.67,6.67,6.67,3.67,0,6.67-3,6.67-6.67v-88.25s37.75,55.4,37.75,55.4c1.7,2.49,3.51,3.29,5.39,3.29h0c1.88,0,3.7-.8,5.39-3.29l37.75-55.4v88.25c0,3.67,3,6.67,6.67,6.67s6.67-3,6.67-6.67v-105.41c0-3.67-3-6.67-6.67-6.67h-1.6c-2.33,0-4.5,1.16-5.79,3.1l-42.43,63.77h0Z"/><path class="cls-1" d="M351.14,511.9l-73.98-94.34c-1.32-1.67-3.33-2.65-5.46-2.65h-2.06c-3.67,0-6.67,3-6.67,6.67v105.41c0,3.67,3,6.67,6.67,6.67h0c3.67,0,6.67-3,6.67-6.67v-90.32l72.95,93.07,1.03,1.27c1.32,1.67,3.33,2.65,5.46,2.65h2.06c3.67,0,6.67-3,6.67-6.67v-105.41c0-3.67-3-6.67-6.67-6.67h0c-3.67,0-6.67,3-6.67,6.67v90.32Z"/><path class="cls-1" d="M799.43,524.74s-46.71-102.03-47.95-104.73c-1.24-2.7-3.98-5.1-8.45-5.1s-7.21,2.4-8.45,5.1c-1.24,2.7-47.95,104.73-47.95,104.73-1.43,3.13-.04,6.87,3.09,8.3,3.13,1.43,6.87,.04,8.31-3.09l12.47-27.78h65.07l12.47,27.78c1.44,3.13,5.17,4.52,8.31,3.09,3.13-1.43,4.52-5.17,3.09-8.3Zm-56.4-34.84h-27.02l27.02-60.18,27.02,60.18h-27.02Z"/></g></svg>