<?xml version="1.0" encoding="UTF-8"?><svg id="Layer_2" xmlns="http://www.w3.org/2000/svg" viewBox="0 0 200 200"><defs><style>.cls-1{fill:#16181c;}</style></defs><path class="cls-1" d="M100,100h50c0-27.61,22.39-50,50-50V0C144.77,0,100,44.77,100,100Z"/><path class="cls-1" d="M0,100H50c0-27.61,22.39-50,50-50V0C44.77,0,0,44.77,0,100Z"/><path class="cls-1" d="M200,100h-50c0,27.61-22.39,50-50,50v50c55.23,0,100-44.77,100-100Z"/><path class="cls-1" d="M100,100H50C50,127.61,27.61,150,0,150v50c55.23,0,100-44.77,100-100Z"/></svg>